<?xml version="1.0" encoding="utf-8" standalone="no"?>
<!DOCTYPE svg PUBLIC "-//W3C//DTD SVG 1.1//EN"
  "http://www.w3.org/Graphics/SVG/1.1/DTD/svg11.dtd">
<!-- Created with matplotlib (http://matplotlib.org/) -->
<svg height="288pt" version="1.1" viewBox="0 0 432 288" width="432pt" xmlns="http://www.w3.org/2000/svg" xmlns:xlink="http://www.w3.org/1999/xlink">
 <defs>
  <style type="text/css">
*{stroke-linecap:butt;stroke-linejoin:round;}
  </style>
 </defs>
 <g id="figure_1">
  <g id="patch_1">
   <path d="
M0 288
L432 288
L432 0
L0 0
z
" style="fill:#ffffff;"/>
  </g>
  <g id="axes_1">
   <g id="patch_2">
    <path d="
M54 252
L388.8 252
L388.8 28.8
L54 28.8
z
" style="fill:#ffffff;"/>
   </g>
   <g id="line2d_1">
    <path clip-path="url(#p124b8dd147)" d="
M54 232.443
L54.1675 232.869
L54.335 240.468
L54.5025 240.999
L54.6699 249.874
L54.8374 250.246
L55.0049 245.198
L55.5074 241.797
L55.6748 238.395
L55.8423 239.671
L56.0098 238.395
L56.1773 239.618
L56.3448 237.97
L56.6797 242.009
L56.8472 239.83
L57.0147 241.743
L57.1822 237.12
L57.3497 238.714
L57.5172 238.98
L57.8521 250.778
L58.0196 250.034
L58.1871 249.874
L58.3546 251.575
L58.5221 252
L58.857 252
L59.0245 248.918
L59.192 249.024
L59.3595 248.333
L59.527 248.386
L59.6944 250.034
L60.5319 249.29
L60.8668 248.28
L61.3693 241.159
L61.5368 242.062
L61.7043 240.627
L62.0392 233.719
L62.2067 235.951
L62.5417 248.174
L62.7092 250.034
L62.8766 250.193
L63.3791 246.367
L63.8815 237.545
L64.049 238.077
L64.2165 237.226
L64.384 237.492
L64.5515 237.492
L64.719 237.651
L64.8864 236.907
L65.0539 234.038
L65.2214 234.569
L65.3889 231.274
L65.5564 232.39
L65.7239 230.265
L65.8913 235.419
L66.0588 235.791
L66.5613 238.927
L66.7288 242.222
L66.8962 241.69
L67.2312 241.584
L67.7337 245.782
L68.0686 244.082
L68.2361 242.913
L68.5711 243.497
L69.0735 238.236
L69.4085 236.482
L69.576 236.695
L69.7435 237.279
L70.0784 239.086
L70.4134 240.096
L70.5809 239.671
L70.7484 238.342
L70.9159 238.289
L71.0833 235.685
L71.2508 235.526
L71.4183 232.975
L71.7533 234.25
L71.9208 233.985
L72.0882 235.791
L72.2557 236.004
L72.4232 236.695
L72.5907 239.458
L72.7582 244.56
L72.9257 246.154
L73.0931 244.719
L73.2606 244.401
L73.4281 242.487
L73.5956 242.594
L73.7631 242.062
L73.9306 240.787
L74.2655 236.376
L74.433 236.163
L74.6005 236.907
L74.768 236.589
L74.9355 237.97
L75.103 237.279
L75.2704 237.12
L75.4379 237.279
L75.6054 236.907
L75.7729 238.023
L75.9404 237.545
L76.1079 238.183
L76.2753 239.299
L76.4428 238.183
L76.6103 238.927
L76.7778 240.468
L77.1128 240.096
L77.2802 241.106
L77.7827 234.091
L78.4526 242.487
L78.6201 242.753
L78.7876 242.009
L78.9551 242.275
L79.1226 239.724
L79.29 239.937
L79.625 237.864
L79.7925 237.917
L79.96 237.758
L80.2949 236.535
L80.4624 237.386
L80.6299 237.333
L80.9649 240.043
L81.4673 235.791
L81.6348 235.898
L81.8023 232.071
L81.9698 232.284
L82.1373 238.023
L82.3048 238.767
L82.8072 242.806
L82.9747 242.647
L83.1422 243.178
L83.4771 242.275
L83.6446 244.241
L83.8121 244.347
L84.3146 249.821
L84.6495 251.787
L84.817 252
L94.6985 252
L95.0335 251.628
L95.201 252
L98.3832 252
L98.5507 250.99
L98.7182 251.097
L98.8856 251.947
L99.0531 252
L99.2206 251.894
L99.3881 251.947
L99.7231 251.362
L100.058 251.415
L100.393 251.043
L100.56 251.415
L100.895 251.469
L101.063 251.575
L101.23 252
L101.9 251.947
L102.068 251.575
L102.235 250.725
L102.403 250.512
L102.57 250.725
L102.738 250.725
L102.905 250.512
L103.408 250.618
L103.575 250.831
L103.743 250.831
L103.91 251.681
L104.078 251.681
L104.413 251.043
L104.748 250.193
L104.915 249.077
L105.083 249.077
L105.752 250.831
L105.92 251.097
L106.087 251.097
L107.092 249.024
L107.26 249.396
L107.427 250.193
L107.595 250.193
L107.762 249.874
L107.93 250.565
L108.432 250.618
L108.6 251.415
L108.767 251.415
L108.935 251.894
L110.107 251.841
L111.447 248.918
L111.782 249.024
L111.949 248.971
L112.619 250.034
L112.954 249.874
L113.122 249.662
L113.289 250.087
L113.457 250.087
L113.792 249.768
L113.959 250.034
L114.127 250.087
L114.294 249.981
L114.462 250.034
L114.629 250.459
L114.797 250.459
L114.964 250.671
L115.132 250.565
L115.299 249.13
L115.467 249.821
L115.634 251.309
L115.802 251.362
L115.969 251.681
L116.136 251.734
L116.304 252
L116.471 252
L116.639 251.681
L117.141 251.734
L117.309 252
L166.382 252
L166.549 251.256
L166.884 250.884
L167.386 249.449
L167.554 249.396
L167.889 249.024
L168.391 249.609
L169.061 249.237
L169.564 249.927
L169.731 249.927
L169.899 249.662
L170.066 250.14
L170.569 249.715
L171.239 248.014
L171.406 247.961
L171.741 246.579
L171.909 247.589
L172.244 246.207
L172.411 245.623
L172.578 243.285
L172.746 242.859
L172.913 241.69
L173.081 241.584
L173.248 242.275
L173.416 242.275
L173.583 241.743
L173.751 241.85
L173.918 241.371
L174.086 241.531
L174.253 241.106
L174.421 240.999
L174.588 241.584
L174.923 241.69
L175.091 241.69
L175.258 242.222
L175.426 242.222
L175.593 241.159
L175.761 241.212
L175.928 240.521
L176.096 240.521
L176.263 241.106
L176.431 241.053
L176.598 240.468
L176.933 240.255
L177.101 240.043
L177.436 238.98
L177.603 239.193
L177.938 239.299
L178.44 241.584
L179.11 242.594
L179.278 243.231
L179.613 243.55
L179.78 243.869
L179.948 243.869
L180.115 243.285
L180.283 243.285
L180.953 245.357
L181.12 245.517
L181.455 246.792
L181.623 247.111
L181.958 248.014
L182.293 248.865
L182.628 250.034
L182.962 250.246
L183.13 250.299
L183.632 252
L185.307 251.947
L185.475 251.787
L185.977 252
L199.376 252
L199.543 251.841
L199.878 251.841
L200.046 252
L200.883 252
L201.051 251.734
L201.218 251.787
L201.386 252
L202.726 252
L203.061 251.787
L203.228 251.256
L203.395 251.841
L203.563 251.681
L204.065 248.28
L204.233 248.493
L204.4 249.29
L204.568 250.884
L205.07 251.362
L205.238 250.512
L205.405 250.246
L205.573 251.043
L206.243 251.043
L206.578 250.778
L206.913 248.865
L207.08 249.927
L207.248 249.981
L207.583 247.802
L207.918 248.333
L208.253 247.483
L208.587 249.449
L208.755 249.396
L208.922 249.662
L209.09 248.918
L209.257 248.918
L209.592 248.386
L209.76 247.642
L209.927 247.908
L210.095 248.865
L210.262 248.705
L210.932 250.618
L211.1 250.671
L211.435 248.493
L211.937 249.502
L212.105 248.971
L212.272 249.396
L212.44 248.386
L212.607 248.599
L212.775 249.237
L213.277 247.43
L213.445 244.613
L213.612 244.188
L213.947 242.328
L214.282 243.444
L214.449 242.913
L214.617 243.178
L214.952 241.85
L215.119 242.062
L215.287 242.753
L215.454 242.806
L215.622 241.85
L215.789 244.454
L216.124 245.304
L216.459 248.227
L216.627 248.28
L216.962 247.589
L217.129 245.517
L217.297 245.782
L217.632 243.869
L217.799 244.347
L217.967 243.869
L218.134 244.029
L218.302 242.913
L218.469 243.125
L218.637 243.869
L218.804 243.178
L219.306 246.526
L219.474 247.27
L219.641 246.42
L219.976 244.454
L220.144 243.285
L220.311 243.019
L220.814 245.995
L220.981 245.782
L221.149 246.314
L221.651 245.304
L221.986 239.618
L222.321 236.27
L222.991 229.095
L223.159 228.989
L223.326 228.192
L223.494 226.173
L223.661 226.917
L223.829 229.202
L223.996 229.946
L224.163 229.467
L224.331 229.893
L224.498 229.839
L224.666 230.477
L224.833 230.637
L225.001 231.699
L225.168 231.381
L225.336 232.337
L225.838 226.598
L226.006 225.11
L226.173 226.226
L226.341 224.95
L226.676 226.013
L227.011 223.675
L227.178 223.462
L227.513 221.602
L227.681 221.496
L228.016 218.307
L228.183 217.935
L229.021 209.433
L229.523 206.403
L229.69 206.35
L230.025 204.597
L230.193 205.234
L230.36 204.597
L230.528 200.611
L230.695 200.558
L230.863 200.186
L231.03 199.442
L231.198 201.514
L231.533 201.302
L231.868 199.282
L232.035 199.123
L232.203 198.698
L232.37 199.973
L232.538 200.239
L232.705 200.93
L232.873 200.983
L233.04 201.727
L233.208 200.717
L233.375 200.664
L233.543 201.355
L234.045 199.867
L234.213 200.026
L234.38 199.495
L234.715 196.306
L235.05 194.287
L235.217 194.181
L235.552 192.427
L235.72 192.055
L235.887 193.702
L236.222 194.34
L236.39 193.33
L236.557 193.437
L236.725 193.809
L236.892 193.118
L237.06 193.49
L237.227 196.041
L237.395 196.625
L238.065 191.736
L238.232 191.895
L238.4 191.789
L238.567 192.108
L238.902 193.49
L239.07 193.968
L239.405 196.147
L239.572 195.403
L239.739 195.934
L239.907 195.137
L240.074 195.669
L240.242 194.606
L240.409 194.446
L241.079 198.379
L241.414 194.553
L241.582 193.702
L241.749 194.074
L241.917 195.669
L242.084 196.041
L242.252 195.669
L242.419 196.678
L242.587 196.572
L242.922 191.417
L243.927 179.619
L244.094 179.46
L244.429 178.291
L244.596 178.61
L244.764 178.557
L244.931 179.938
L245.099 179.726
L245.266 182.064
L245.434 181.798
L245.601 180.895
L245.769 180.735
L245.936 179.46
L246.439 178.291
L246.606 180.47
L246.941 177.813
L247.109 177.813
L247.276 178.557
L247.444 178.716
L247.779 177.919
L248.114 173.986
L248.449 171.914
L248.616 171.861
L248.951 174.305
L249.119 174.039
L249.788 169.629
L249.956 169.363
L250.291 169.682
L250.458 169.363
L250.626 168.247
L250.793 168.406
L250.961 168.087
L251.463 171.276
L251.631 172.817
L251.798 171.914
L251.966 170.16
L252.133 170.426
L252.301 172.073
L252.468 172.498
L252.636 172.02
L252.803 172.073
L252.971 172.711
L253.138 172.339
L253.306 172.339
L253.473 171.914
L253.808 168.566
L254.143 165.165
L254.311 164.208
L254.478 165.058
L254.646 165.218
L254.813 164.739
L254.98 163.251
L255.315 163.889
L255.483 162.986
L255.65 164.261
L255.985 163.623
L256.153 164.367
L256.32 166.068
L256.488 165.377
L256.823 159.744
L257.158 156.555
L257.325 157.99
L257.493 157.14
L257.66 157.034
L258.163 151.56
L258.665 147.84
L258.833 145.714
L259 145.183
L259.168 145.714
L259.335 145.13
L259.503 142.313
L259.838 144.598
L260.005 144.651
L260.172 145.023
L260.507 142.845
L260.675 139.231
L260.842 138.062
L261.01 139.231
L261.177 138.593
L261.512 136.68
L261.847 137.158
L262.015 137.318
L262.517 133.81
L262.852 132.375
L263.187 135.83
L263.355 134.607
L263.522 131.844
L264.025 129.612
L264.527 125.626
L264.695 122.278
L264.862 121.481
L265.197 121.109
L265.364 120.471
L265.532 121.747
L265.867 122.278
L266.034 123.447
L266.202 122.81
L266.369 123.926
L266.704 124.351
L266.872 124.032
L267.039 124.191
L267.207 123.873
L267.374 122.969
L267.542 123.075
L267.709 121.056
L267.877 121.056
L268.212 116.698
L268.379 116.167
L268.547 114.945
L268.714 115.051
L268.882 114.36
L269.384 113.722
L269.719 111.543
L269.887 111.118
L270.054 111.543
L270.222 113.031
L270.556 113.669
L270.724 110.693
L270.891 109.79
L271.059 107.505
L271.226 106.867
L271.394 105.007
L271.561 105.113
L271.729 102.775
L271.896 102.615
L272.064 102.987
L272.231 102.987
L272.399 103.997
L272.734 103.094
L273.236 97.8857
L273.404 98.2577
L273.571 97.3543
L273.906 94.4846
L274.074 94.5377
L274.241 95.1223
L274.409 95.2286
L274.576 94.8566
L274.744 94.0063
L275.079 93.8469
L275.414 94.4314
L275.581 94.4314
L276.921 88.0011
L277.088 88.1074
L277.256 87.204
L277.423 87.0446
L277.591 87.204
L277.758 86.3537
L277.926 86.3537
L278.093 85.3971
L278.261 86.1943
L278.428 90.2863
L278.596 91.6149
L278.763 91.668
L278.931 91.9869
L279.266 91.0303
L279.433 91.0834
L279.601 90.2863
L279.768 90.4457
L280.103 87.1509
L280.271 86.7257
L280.438 86.7789
L280.606 86.5663
L280.94 88.0543
L281.108 88.1074
L281.61 89.4891
L281.778 90.4457
L281.945 89.7017
L282.113 90.0206
L282.28 90.0206
L282.615 91.5086
L282.783 91.296
L282.95 91.8274
L283.118 91.4023
L283.285 89.1703
L283.62 88.1606
L284.29 86.7789
L284.458 87.0446
L284.96 85.9286
L285.128 86.46
L285.295 86.088
L285.797 82.5274
L285.965 82.1023
L286.132 82.3149
L286.3 83.0589
L286.467 83.0057
L286.635 83.6434
L286.802 85.5034
L286.97 86.0349
L287.137 85.344
L287.305 85.716
L287.807 84.6
L288.31 84.7063
L288.645 84.3343
L288.812 84.6531
L288.98 85.2377
L289.482 88.3731
L289.65 88.5326
L289.985 88.0011
L290.152 87.3103
L290.32 87.0977
L290.487 87.1509
L290.655 86.8851
L290.822 88.1606
L291.324 88.4263
L291.492 88.2669
L291.659 88.2669
L291.827 87.7354
L291.994 87.576
L292.162 87.576
L292.329 87.8417
L292.497 87.8949
L292.664 86.9914
L293.167 88.32
L293.334 89.3297
L293.502 91.4554
L293.669 91.4023
L293.837 91.1897
L294.004 91.7211
L294.172 91.6149
L294.339 91.3491
L294.507 89.9143
L294.674 89.9674
L294.842 89.5423
L295.177 87.948
L295.344 87.6823
L295.679 86.2474
L296.014 85.8223
L296.181 85.0783
L296.349 83.5903
L296.684 82.8994
L297.019 81.0926
L297.186 80.9863
L297.354 79.8171
L297.521 79.4983
L297.689 78.9137
L297.856 80.1891
L298.024 80.136
L298.191 80.9863
L298.861 81.4114
L299.029 82.2617
L299.699 80.9863
L300.034 80.6674
L300.201 80.0297
L300.369 80.0297
L300.704 79.2857
L300.871 79.1794
L301.541 77.7977
L301.708 77.1069
L301.876 75.2469
L302.043 70.464
L302.211 69.5606
L302.546 69.0291
L302.713 69.4543
L302.881 68.0726
L303.048 67.7537
L303.216 68.8166
L303.383 68.3383
L303.551 68.3914
L303.718 68.976
L303.886 68.7634
L304.053 68.976
L304.221 69.72
L304.556 71.952
L304.723 73.068
L305.226 73.9714
L305.393 73.8651
L305.896 72.1114
L306.398 70.1983
L306.565 70.1983
L306.9 67.488
L307.403 65.8406
L307.738 64.4589
L308.24 64.884
L308.408 64.8309
L308.575 65.256
L309.915 59.0914
L310.083 57.4971
L310.25 57.4971
L311.088 54.6806
L311.423 52.1297
L311.757 51.0669
L312.092 49.3131
L312.26 49.4194
L312.762 46.8154
L312.93 46.7623
L313.097 45.6994
L313.265 45.4869
L313.6 44.1583
L313.767 44.1051
L313.935 45.5931
L314.102 45.4337
L314.27 45.5931
L314.437 45.3806
L314.772 45.4337
L314.94 45.7526
L315.107 45.7526
L315.275 45.9651
L315.442 45.8589
L315.61 46.9749
L315.777 46.9749
L315.945 46.7623
L316.447 46.8686
L316.615 47.3469
L316.782 47.3469
L316.949 47.5063
L317.452 47.2406
L317.619 46.7623
L319.127 46.656
L319.294 47.4
L319.462 47.5063
L319.797 47.4
L320.132 47.4
L320.299 46.8154
L320.467 47.028
L320.634 47.772
L320.802 47.8783
L320.969 48.3034
L321.137 48.2503
L321.304 47.0811
L321.639 47.028
L321.807 46.4966
L321.974 45.2743
L323.146 45.2743
L323.314 44.9554
L323.481 45.1149
L323.649 43.9989
L324.319 43.9989
L324.486 43.7331
L324.654 41.1291
L325.156 39.6943
L325.324 40.1726
L326.161 39.7474
L326.329 40.2257
L326.496 40.1194
L326.664 39.7474
L326.998 39.7474
L327.166 39.96
L327.333 39.4286
L388.8 39.4286
L388.8 39.4286" style="fill:none;stroke:#0000ff;stroke-linecap:square;"/>
   </g>
   <g id="line2d_2">
    <path clip-path="url(#p124b8dd147)" d="
M54 251.996
L119.151 251.871
L139.752 251.62
L152.648 251.253
L162.194 250.769
L169.731 250.176
L176.096 249.46
L181.623 248.618
L186.48 247.655
L190.834 246.566
L194.854 245.328
L198.538 243.957
L201.888 242.478
L205.07 240.836
L208.085 239.037
L211.1 236.969
L213.947 234.74
L216.794 232.214
L219.474 229.538
L222.154 226.549
L224.833 223.221
L227.513 219.534
L230.193 215.469
L232.873 211.01
L235.72 205.831
L238.567 200.196
L241.582 193.741
L244.764 186.409
L248.281 177.745
L252.301 167.245
L257.66 152.57
L268.882 121.667
L273.069 110.885
L276.753 102.01
L280.103 94.5274
L283.118 88.3114
L286.132 82.6044
L288.98 77.6845
L291.827 73.2133
L294.507 69.4014
L297.186 65.9558
L299.866 62.8555
L302.546 60.0773
L305.393 57.4512
L308.24 55.1318
L311.088 53.0899
L314.102 51.1993
L317.284 49.4724
L320.634 47.9161
L324.151 46.5317
L327.836 45.316
L331.856 44.2203
L336.378 43.2249
L341.402 42.3561
L347.097 41.6068
L353.628 40.9786
L361.5 40.456
L371.214 40.0465
L383.943 39.7456
L388.8 39.6742
L388.8 39.6742" style="fill:none;stroke:#ff0000;stroke-linecap:square;"/>
   </g>
   <g id="matplotlib.axis_1">
    <g id="xtick_1">
     <g id="line2d_3">
      <defs>
       <path d="
M0 0
L0 -4" id="m93b0483c22" style="stroke:#000000;stroke-width:0.5;"/>
      </defs>
      <g>
       <use style="stroke:#000000;stroke-width:0.5;" x="54.0" xlink:href="#m93b0483c22" y="252.0"/>
      </g>
     </g>
     <g id="line2d_4">
      <defs>
       <path d="
M0 0
L0 4" id="m741efc42ff" style="stroke:#000000;stroke-width:0.5;"/>
      </defs>
      <g>
       <use style="stroke:#000000;stroke-width:0.5;" x="54.0" xlink:href="#m741efc42ff" y="28.8"/>
      </g>
     </g>
     <g id="text_1">
      <!-- 0.0 -->
      <defs>
       <path d="
M31.7812 66.4062
Q24.1719 66.4062 20.3281 58.9062
Q16.5 51.4219 16.5 36.375
Q16.5 21.3906 20.3281 13.8906
Q24.1719 6.39062 31.7812 6.39062
Q39.4531 6.39062 43.2812 13.8906
Q47.125 21.3906 47.125 36.375
Q47.125 51.4219 43.2812 58.9062
Q39.4531 66.4062 31.7812 66.4062
M31.7812 74.2188
Q44.0469 74.2188 50.5156 64.5156
Q56.9844 54.8281 56.9844 36.375
Q56.9844 17.9688 50.5156 8.26562
Q44.0469 -1.42188 31.7812 -1.42188
Q19.5312 -1.42188 13.0625 8.26562
Q6.59375 17.9688 6.59375 36.375
Q6.59375 54.8281 13.0625 64.5156
Q19.5312 74.2188 31.7812 74.2188" id="DejaVuSans-30"/>
       <path d="
M10.6875 12.4062
L21 12.4062
L21 0
L10.6875 0
z
" id="DejaVuSans-2e"/>
      </defs>
      <g transform="translate(46.71015625 263.5984375)scale(0.1 -0.1)">
       <use xlink:href="#DejaVuSans-30"/>
       <use x="63.623046875" xlink:href="#DejaVuSans-2e"/>
       <use x="95.41015625" xlink:href="#DejaVuSans-30"/>
      </g>
     </g>
    </g>
    <g id="xtick_2">
     <g id="line2d_5">
      <g>
       <use style="stroke:#000000;stroke-width:0.5;" x="120.96" xlink:href="#m93b0483c22" y="252.0"/>
      </g>
     </g>
     <g id="line2d_6">
      <g>
       <use style="stroke:#000000;stroke-width:0.5;" x="120.96" xlink:href="#m741efc42ff" y="28.8"/>
      </g>
     </g>
     <g id="text_2">
      <!-- 0.2 -->
      <defs>
       <path d="
M19.1875 8.29688
L53.6094 8.29688
L53.6094 0
L7.32812 0
L7.32812 8.29688
Q12.9375 14.1094 22.625 23.8906
Q32.3281 33.6875 34.8125 36.5312
Q39.5469 41.8438 41.4219 45.5312
Q43.3125 49.2188 43.3125 52.7812
Q43.3125 58.5938 39.2344 62.25
Q35.1562 65.9219 28.6094 65.9219
Q23.9688 65.9219 18.8125 64.3125
Q13.6719 62.7031 7.8125 59.4219
L7.8125 69.3906
Q13.7656 71.7812 18.9375 73
Q24.125 74.2188 28.4219 74.2188
Q39.75 74.2188 46.4844 68.5469
Q53.2188 62.8906 53.2188 53.4219
Q53.2188 48.9219 51.5312 44.8906
Q49.8594 40.875 45.4062 35.4062
Q44.1875 33.9844 37.6406 27.2188
Q31.1094 20.4531 19.1875 8.29688" id="DejaVuSans-32"/>
      </defs>
      <g transform="translate(113.83890625 263.5984375)scale(0.1 -0.1)">
       <use xlink:href="#DejaVuSans-30"/>
       <use x="63.623046875" xlink:href="#DejaVuSans-2e"/>
       <use x="95.41015625" xlink:href="#DejaVuSans-32"/>
      </g>
     </g>
    </g>
    <g id="xtick_3">
     <g id="line2d_7">
      <g>
       <use style="stroke:#000000;stroke-width:0.5;" x="187.92" xlink:href="#m93b0483c22" y="252.0"/>
      </g>
     </g>
     <g id="line2d_8">
      <g>
       <use style="stroke:#000000;stroke-width:0.5;" x="187.92" xlink:href="#m741efc42ff" y="28.8"/>
      </g>
     </g>
     <g id="text_3">
      <!-- 0.4 -->
      <defs>
       <path d="
M37.7969 64.3125
L12.8906 25.3906
L37.7969 25.3906
z

M35.2031 72.9062
L47.6094 72.9062
L47.6094 25.3906
L58.0156 25.3906
L58.0156 17.1875
L47.6094 17.1875
L47.6094 0
L37.7969 0
L37.7969 17.1875
L4.89062 17.1875
L4.89062 26.7031
z
" id="DejaVuSans-34"/>
      </defs>
      <g transform="translate(180.57859375 263.5984375)scale(0.1 -0.1)">
       <use xlink:href="#DejaVuSans-30"/>
       <use x="63.623046875" xlink:href="#DejaVuSans-2e"/>
       <use x="95.41015625" xlink:href="#DejaVuSans-34"/>
      </g>
     </g>
    </g>
    <g id="xtick_4">
     <g id="line2d_9">
      <g>
       <use style="stroke:#000000;stroke-width:0.5;" x="254.88" xlink:href="#m93b0483c22" y="252.0"/>
      </g>
     </g>
     <g id="line2d_10">
      <g>
       <use style="stroke:#000000;stroke-width:0.5;" x="254.88" xlink:href="#m741efc42ff" y="28.8"/>
      </g>
     </g>
     <g id="text_4">
      <!-- 0.6 -->
      <defs>
       <path d="
M33.0156 40.375
Q26.375 40.375 22.4844 35.8281
Q18.6094 31.2969 18.6094 23.3906
Q18.6094 15.5312 22.4844 10.9531
Q26.375 6.39062 33.0156 6.39062
Q39.6562 6.39062 43.5312 10.9531
Q47.4062 15.5312 47.4062 23.3906
Q47.4062 31.2969 43.5312 35.8281
Q39.6562 40.375 33.0156 40.375
M52.5938 71.2969
L52.5938 62.3125
Q48.875 64.0625 45.0938 64.9844
Q41.3125 65.9219 37.5938 65.9219
Q27.8281 65.9219 22.6719 59.3281
Q17.5312 52.7344 16.7969 39.4062
Q19.6719 43.6562 24.0156 45.9219
Q28.375 48.1875 33.5938 48.1875
Q44.5781 48.1875 50.9531 41.5156
Q57.3281 34.8594 57.3281 23.3906
Q57.3281 12.1562 50.6875 5.35938
Q44.0469 -1.42188 33.0156 -1.42188
Q20.3594 -1.42188 13.6719 8.26562
Q6.98438 17.9688 6.98438 36.375
Q6.98438 53.6562 15.1875 63.9375
Q23.3906 74.2188 37.2031 74.2188
Q40.9219 74.2188 44.7031 73.4844
Q48.4844 72.75 52.5938 71.2969" id="DejaVuSans-36"/>
      </defs>
      <g transform="translate(247.57296875 263.5984375)scale(0.1 -0.1)">
       <use xlink:href="#DejaVuSans-30"/>
       <use x="63.623046875" xlink:href="#DejaVuSans-2e"/>
       <use x="95.41015625" xlink:href="#DejaVuSans-36"/>
      </g>
     </g>
    </g>
    <g id="xtick_5">
     <g id="line2d_11">
      <g>
       <use style="stroke:#000000;stroke-width:0.5;" x="321.84" xlink:href="#m93b0483c22" y="252.0"/>
      </g>
     </g>
     <g id="line2d_12">
      <g>
       <use style="stroke:#000000;stroke-width:0.5;" x="321.84" xlink:href="#m741efc42ff" y="28.8"/>
      </g>
     </g>
     <g id="text_5">
      <!-- 0.8 -->
      <defs>
       <path d="
M31.7812 34.625
Q24.75 34.625 20.7188 30.8594
Q16.7031 27.0938 16.7031 20.5156
Q16.7031 13.9219 20.7188 10.1562
Q24.75 6.39062 31.7812 6.39062
Q38.8125 6.39062 42.8594 10.1719
Q46.9219 13.9688 46.9219 20.5156
Q46.9219 27.0938 42.8906 30.8594
Q38.875 34.625 31.7812 34.625
M21.9219 38.8125
Q15.5781 40.375 12.0312 44.7188
Q8.5 49.0781 8.5 55.3281
Q8.5 64.0625 14.7188 69.1406
Q20.9531 74.2188 31.7812 74.2188
Q42.6719 74.2188 48.875 69.1406
Q55.0781 64.0625 55.0781 55.3281
Q55.0781 49.0781 51.5312 44.7188
Q48 40.375 41.7031 38.8125
Q48.8281 37.1562 52.7969 32.3125
Q56.7812 27.4844 56.7812 20.5156
Q56.7812 9.90625 50.3125 4.23438
Q43.8438 -1.42188 31.7812 -1.42188
Q19.7344 -1.42188 13.25 4.23438
Q6.78125 9.90625 6.78125 20.5156
Q6.78125 27.4844 10.7812 32.3125
Q14.7969 37.1562 21.9219 38.8125
M18.3125 54.3906
Q18.3125 48.7344 21.8438 45.5625
Q25.3906 42.3906 31.7812 42.3906
Q38.1406 42.3906 41.7188 45.5625
Q45.3125 48.7344 45.3125 54.3906
Q45.3125 60.0625 41.7188 63.2344
Q38.1406 66.4062 31.7812 66.4062
Q25.3906 66.4062 21.8438 63.2344
Q18.3125 60.0625 18.3125 54.3906" id="DejaVuSans-38"/>
      </defs>
      <g transform="translate(314.5603125 263.5984375)scale(0.1 -0.1)">
       <use xlink:href="#DejaVuSans-30"/>
       <use x="63.623046875" xlink:href="#DejaVuSans-2e"/>
       <use x="95.41015625" xlink:href="#DejaVuSans-38"/>
      </g>
     </g>
    </g>
    <g id="xtick_6">
     <g id="line2d_13">
      <g>
       <use style="stroke:#000000;stroke-width:0.5;" x="388.8" xlink:href="#m93b0483c22" y="252.0"/>
      </g>
     </g>
     <g id="line2d_14">
      <g>
       <use style="stroke:#000000;stroke-width:0.5;" x="388.8" xlink:href="#m741efc42ff" y="28.8"/>
      </g>
     </g>
     <g id="text_6">
      <!-- 1.0 -->
      <defs>
       <path d="
M12.4062 8.29688
L28.5156 8.29688
L28.5156 63.9219
L10.9844 60.4062
L10.9844 69.3906
L28.4219 72.9062
L38.2812 72.9062
L38.2812 8.29688
L54.3906 8.29688
L54.3906 0
L12.4062 0
z
" id="DejaVuSans-31"/>
      </defs>
      <g transform="translate(381.7296875 263.5984375)scale(0.1 -0.1)">
       <use xlink:href="#DejaVuSans-31"/>
       <use x="63.623046875" xlink:href="#DejaVuSans-2e"/>
       <use x="95.41015625" xlink:href="#DejaVuSans-30"/>
      </g>
     </g>
    </g>
   </g>
   <g id="matplotlib.axis_2">
    <g id="ytick_1">
     <g id="line2d_15">
      <defs>
       <path d="
M0 0
L4 0" id="m728421d6d4" style="stroke:#000000;stroke-width:0.5;"/>
      </defs>
      <g>
       <use style="stroke:#000000;stroke-width:0.5;" x="54.0" xlink:href="#m728421d6d4" y="252.0"/>
      </g>
     </g>
     <g id="line2d_16">
      <defs>
       <path d="
M0 0
L-4 0" id="mcb0005524f" style="stroke:#000000;stroke-width:0.5;"/>
      </defs>
      <g>
       <use style="stroke:#000000;stroke-width:0.5;" x="388.8" xlink:href="#mcb0005524f" y="252.0"/>
      </g>
     </g>
     <g id="text_7">
      <!-- 0.0 -->
      <g transform="translate(35.4203125 254.759375)scale(0.1 -0.1)">
       <use xlink:href="#DejaVuSans-30"/>
       <use x="63.623046875" xlink:href="#DejaVuSans-2e"/>
       <use x="95.41015625" xlink:href="#DejaVuSans-30"/>
      </g>
     </g>
    </g>
    <g id="ytick_2">
     <g id="line2d_17">
      <g>
       <use style="stroke:#000000;stroke-width:0.5;" x="54.0" xlink:href="#m728421d6d4" y="209.485714286"/>
      </g>
     </g>
     <g id="line2d_18">
      <g>
       <use style="stroke:#000000;stroke-width:0.5;" x="388.8" xlink:href="#mcb0005524f" y="209.485714286"/>
      </g>
     </g>
     <g id="text_8">
      <!-- 0.2 -->
      <g transform="translate(35.7578125 212.245089286)scale(0.1 -0.1)">
       <use xlink:href="#DejaVuSans-30"/>
       <use x="63.623046875" xlink:href="#DejaVuSans-2e"/>
       <use x="95.41015625" xlink:href="#DejaVuSans-32"/>
      </g>
     </g>
    </g>
    <g id="ytick_3">
     <g id="line2d_19">
      <g>
       <use style="stroke:#000000;stroke-width:0.5;" x="54.0" xlink:href="#m728421d6d4" y="166.971428571"/>
      </g>
     </g>
     <g id="line2d_20">
      <g>
       <use style="stroke:#000000;stroke-width:0.5;" x="388.8" xlink:href="#mcb0005524f" y="166.971428571"/>
      </g>
     </g>
     <g id="text_9">
      <!-- 0.4 -->
      <g transform="translate(35.3171875 169.730803571)scale(0.1 -0.1)">
       <use xlink:href="#DejaVuSans-30"/>
       <use x="63.623046875" xlink:href="#DejaVuSans-2e"/>
       <use x="95.41015625" xlink:href="#DejaVuSans-34"/>
      </g>
     </g>
    </g>
    <g id="ytick_4">
     <g id="line2d_21">
      <g>
       <use style="stroke:#000000;stroke-width:0.5;" x="54.0" xlink:href="#m728421d6d4" y="124.457142857"/>
      </g>
     </g>
     <g id="line2d_22">
      <g>
       <use style="stroke:#000000;stroke-width:0.5;" x="388.8" xlink:href="#mcb0005524f" y="124.457142857"/>
      </g>
     </g>
     <g id="text_10">
      <!-- 0.6 -->
      <g transform="translate(35.3859375 127.216517857)scale(0.1 -0.1)">
       <use xlink:href="#DejaVuSans-30"/>
       <use x="63.623046875" xlink:href="#DejaVuSans-2e"/>
       <use x="95.41015625" xlink:href="#DejaVuSans-36"/>
      </g>
     </g>
    </g>
    <g id="ytick_5">
     <g id="line2d_23">
      <g>
       <use style="stroke:#000000;stroke-width:0.5;" x="54.0" xlink:href="#m728421d6d4" y="81.9428571429"/>
      </g>
     </g>
     <g id="line2d_24">
      <g>
       <use style="stroke:#000000;stroke-width:0.5;" x="388.8" xlink:href="#mcb0005524f" y="81.9428571429"/>
      </g>
     </g>
     <g id="text_11">
      <!-- 0.8 -->
      <g transform="translate(35.440625 84.7022321429)scale(0.1 -0.1)">
       <use xlink:href="#DejaVuSans-30"/>
       <use x="63.623046875" xlink:href="#DejaVuSans-2e"/>
       <use x="95.41015625" xlink:href="#DejaVuSans-38"/>
      </g>
     </g>
    </g>
    <g id="ytick_6">
     <g id="line2d_25">
      <g>
       <use style="stroke:#000000;stroke-width:0.5;" x="54.0" xlink:href="#m728421d6d4" y="39.4285714286"/>
      </g>
     </g>
     <g id="line2d_26">
      <g>
       <use style="stroke:#000000;stroke-width:0.5;" x="388.8" xlink:href="#mcb0005524f" y="39.4285714286"/>
      </g>
     </g>
     <g id="text_12">
      <!-- 1.0 -->
      <g transform="translate(35.859375 42.1879464286)scale(0.1 -0.1)">
       <use xlink:href="#DejaVuSans-31"/>
       <use x="63.623046875" xlink:href="#DejaVuSans-2e"/>
       <use x="95.41015625" xlink:href="#DejaVuSans-30"/>
      </g>
     </g>
    </g>
   </g>
   <g id="patch_3">
    <path d="
M54 28.8
L388.8 28.8" style="fill:none;stroke:#000000;"/>
   </g>
   <g id="patch_4">
    <path d="
M388.8 252
L388.8 28.8" style="fill:none;stroke:#000000;"/>
   </g>
   <g id="patch_5">
    <path d="
M54 252
L388.8 252" style="fill:none;stroke:#000000;"/>
   </g>
   <g id="patch_6">
    <path d="
M54 252
L54 28.8" style="fill:none;stroke:#000000;"/>
   </g>
   <g id="text_13">
    <!-- x0: 0.615647638753 -->
    <defs>
     <path d="
M11.7188 12.4062
L22.0156 12.4062
L22.0156 0
L11.7188 0
z

M11.7188 51.7031
L22.0156 51.7031
L22.0156 39.3125
L11.7188 39.3125
z
" id="DejaVuSans-3a"/>
     <path d="
M40.5781 39.3125
Q47.6562 37.7969 51.625 33
Q55.6094 28.2188 55.6094 21.1875
Q55.6094 10.4062 48.1875 4.48438
Q40.7656 -1.42188 27.0938 -1.42188
Q22.5156 -1.42188 17.6562 -0.515625
Q12.7969 0.390625 7.625 2.20312
L7.625 11.7188
Q11.7188 9.32812 16.5938 8.10938
Q21.4844 6.89062 26.8125 6.89062
Q36.0781 6.89062 40.9375 10.5469
Q45.7969 14.2031 45.7969 21.1875
Q45.7969 27.6406 41.2812 31.2656
Q36.7656 34.9062 28.7188 34.9062
L20.2188 34.9062
L20.2188 43.0156
L29.1094 43.0156
Q36.375 43.0156 40.2344 45.9219
Q44.0938 48.8281 44.0938 54.2969
Q44.0938 59.9062 40.1094 62.9062
Q36.1406 65.9219 28.7188 65.9219
Q24.6562 65.9219 20.0156 65.0312
Q15.375 64.1562 9.8125 62.3125
L9.8125 71.0938
Q15.4375 72.6562 20.3438 73.4375
Q25.25 74.2188 29.5938 74.2188
Q40.8281 74.2188 47.3594 69.1094
Q53.9062 64.0156 53.9062 55.3281
Q53.9062 49.2656 50.4375 45.0938
Q46.9688 40.9219 40.5781 39.3125" id="DejaVuSans-33"/>
     <path id="DejaVuSans-20"/>
     <path d="
M10.7969 72.9062
L49.5156 72.9062
L49.5156 64.5938
L19.8281 64.5938
L19.8281 46.7344
Q21.9688 47.4688 24.1094 47.8281
Q26.2656 48.1875 28.4219 48.1875
Q40.625 48.1875 47.75 41.5
Q54.8906 34.8125 54.8906 23.3906
Q54.8906 11.625 47.5625 5.09375
Q40.2344 -1.42188 26.9062 -1.42188
Q22.3125 -1.42188 17.5469 -0.640625
Q12.7969 0.140625 7.71875 1.70312
L7.71875 11.625
Q12.1094 9.23438 16.7969 8.0625
Q21.4844 6.89062 26.7031 6.89062
Q35.1562 6.89062 40.0781 11.3281
Q45.0156 15.7656 45.0156 23.3906
Q45.0156 31 40.0781 35.4375
Q35.1562 39.8906 26.7031 39.8906
Q22.75 39.8906 18.8125 39.0156
Q14.8906 38.1406 10.7969 36.2812
z
" id="DejaVuSans-35"/>
     <path d="
M54.8906 54.6875
L35.1094 28.0781
L55.9062 0
L45.3125 0
L29.3906 21.4844
L13.4844 0
L2.875 0
L24.125 28.6094
L4.6875 54.6875
L15.2812 54.6875
L29.7812 35.2031
L44.2812 54.6875
z
" id="DejaVuSans-78"/>
     <path d="
M8.20312 72.9062
L55.0781 72.9062
L55.0781 68.7031
L28.6094 0
L18.3125 0
L43.2188 64.5938
L8.20312 64.5938
z
" id="DejaVuSans-37"/>
    </defs>
    <g transform="translate(87.48 113.259330357)scale(0.1 -0.1)">
     <use xlink:href="#DejaVuSans-78"/>
     <use x="59.1796875" xlink:href="#DejaVuSans-30"/>
     <use x="122.802734375" xlink:href="#DejaVuSans-3a"/>
     <use x="156.494140625" xlink:href="#DejaVuSans-20"/>
     <use x="188.28125" xlink:href="#DejaVuSans-30"/>
     <use x="251.904296875" xlink:href="#DejaVuSans-2e"/>
     <use x="283.69140625" xlink:href="#DejaVuSans-36"/>
     <use x="347.314453125" xlink:href="#DejaVuSans-31"/>
     <use x="410.9375" xlink:href="#DejaVuSans-35"/>
     <use x="474.560546875" xlink:href="#DejaVuSans-36"/>
     <use x="538.18359375" xlink:href="#DejaVuSans-34"/>
     <use x="601.806640625" xlink:href="#DejaVuSans-37"/>
     <use x="665.4296875" xlink:href="#DejaVuSans-36"/>
     <use x="729.052734375" xlink:href="#DejaVuSans-33"/>
     <use x="792.67578125" xlink:href="#DejaVuSans-38"/>
     <use x="856.298828125" xlink:href="#DejaVuSans-37"/>
     <use x="919.921875" xlink:href="#DejaVuSans-35"/>
     <use x="983.544921875" xlink:href="#DejaVuSans-33"/>
    </g>
    <!-- k: 17.5929462264 -->
    <defs>
     <path d="
M10.9844 1.51562
L10.9844 10.5
Q14.7031 8.73438 18.5 7.8125
Q22.3125 6.89062 25.9844 6.89062
Q35.75 6.89062 40.8906 13.4531
Q46.0469 20.0156 46.7812 33.4062
Q43.9531 29.2031 39.5938 26.9531
Q35.25 24.7031 29.9844 24.7031
Q19.0469 24.7031 12.6719 31.3125
Q6.29688 37.9375 6.29688 49.4219
Q6.29688 60.6406 12.9375 67.4219
Q19.5781 74.2188 30.6094 74.2188
Q43.2656 74.2188 49.9219 64.5156
Q56.5938 54.8281 56.5938 36.375
Q56.5938 19.1406 48.4062 8.85938
Q40.2344 -1.42188 26.4219 -1.42188
Q22.7031 -1.42188 18.8906 -0.6875
Q15.0938 0.046875 10.9844 1.51562
M30.6094 32.4219
Q37.25 32.4219 41.125 36.9531
Q45.0156 41.5 45.0156 49.4219
Q45.0156 57.2812 41.125 61.8438
Q37.25 66.4062 30.6094 66.4062
Q23.9688 66.4062 20.0938 61.8438
Q16.2188 57.2812 16.2188 49.4219
Q16.2188 41.5 20.0938 36.9531
Q23.9688 32.4219 30.6094 32.4219" id="DejaVuSans-39"/>
     <path d="
M9.07812 75.9844
L18.1094 75.9844
L18.1094 31.1094
L44.9219 54.6875
L56.3906 54.6875
L27.3906 29.1094
L57.625 0
L45.9062 0
L18.1094 26.7031
L18.1094 0
L9.07812 0
z
" id="DejaVuSans-6b"/>
    </defs>
    <g transform="translate(87.48 124.457142857)scale(0.1 -0.1)">
     <use xlink:href="#DejaVuSans-6b"/>
     <use x="57.91015625" xlink:href="#DejaVuSans-3a"/>
     <use x="91.6015625" xlink:href="#DejaVuSans-20"/>
     <use x="123.388671875" xlink:href="#DejaVuSans-31"/>
     <use x="187.01171875" xlink:href="#DejaVuSans-37"/>
     <use x="250.634765625" xlink:href="#DejaVuSans-2e"/>
     <use x="282.421875" xlink:href="#DejaVuSans-35"/>
     <use x="346.044921875" xlink:href="#DejaVuSans-39"/>
     <use x="409.66796875" xlink:href="#DejaVuSans-32"/>
     <use x="473.291015625" xlink:href="#DejaVuSans-39"/>
     <use x="536.9140625" xlink:href="#DejaVuSans-34"/>
     <use x="600.537109375" xlink:href="#DejaVuSans-36"/>
     <use x="664.16015625" xlink:href="#DejaVuSans-32"/>
     <use x="727.783203125" xlink:href="#DejaVuSans-32"/>
     <use x="791.40625" xlink:href="#DejaVuSans-36"/>
     <use x="855.029296875" xlink:href="#DejaVuSans-34"/>
    </g>
   </g>
   <g id="legend_1">
    <g id="patch_7">
     <path d="
M60 73.6275
L245.968 73.6275
L245.968 34.8
L60 34.8
L60 73.6275
z
" style="fill:#ffffff;stroke:#000000;"/>
    </g>
    <g id="line2d_27">
     <path d="
M68.4 44.5181
L85.2 44.5181" style="fill:none;stroke:#0000ff;stroke-linecap:square;"/>
    </g>
    <g id="line2d_28"/>
    <g id="text_14">
     <!-- Vertical Sky Distribution -->
     <defs>
      <path d="
M30.6094 48.3906
Q23.3906 48.3906 19.1875 42.75
Q14.9844 37.1094 14.9844 27.2969
Q14.9844 17.4844 19.1562 11.8438
Q23.3438 6.20312 30.6094 6.20312
Q37.7969 6.20312 41.9844 11.8594
Q46.1875 17.5312 46.1875 27.2969
Q46.1875 37.0156 41.9844 42.7031
Q37.7969 48.3906 30.6094 48.3906
M30.6094 56
Q42.3281 56 49.0156 48.375
Q55.7188 40.7656 55.7188 27.2969
Q55.7188 13.875 49.0156 6.21875
Q42.3281 -1.42188 30.6094 -1.42188
Q18.8438 -1.42188 12.1719 6.21875
Q5.51562 13.875 5.51562 27.2969
Q5.51562 40.7656 12.1719 48.375
Q18.8438 56 30.6094 56" id="DejaVuSans-6f"/>
      <path d="
M54.8906 33.0156
L54.8906 0
L45.9062 0
L45.9062 32.7188
Q45.9062 40.4844 42.875 44.3281
Q39.8438 48.1875 33.7969 48.1875
Q26.5156 48.1875 22.3125 43.5469
Q18.1094 38.9219 18.1094 30.9062
L18.1094 0
L9.07812 0
L9.07812 54.6875
L18.1094 54.6875
L18.1094 46.1875
Q21.3438 51.125 25.7031 53.5625
Q30.0781 56 35.7969 56
Q45.2188 56 50.0469 50.1719
Q54.8906 44.3438 54.8906 33.0156" id="DejaVuSans-6e"/>
      <path d="
M34.2812 27.4844
Q23.3906 27.4844 19.1875 25
Q14.9844 22.5156 14.9844 16.5
Q14.9844 11.7188 18.1406 8.90625
Q21.2969 6.10938 26.7031 6.10938
Q34.1875 6.10938 38.7031 11.4062
Q43.2188 16.7031 43.2188 25.4844
L43.2188 27.4844
z

M52.2031 31.2031
L52.2031 0
L43.2188 0
L43.2188 8.29688
Q40.1406 3.32812 35.5469 0.953125
Q30.9531 -1.42188 24.3125 -1.42188
Q15.9219 -1.42188 10.9531 3.29688
Q6 8.01562 6 15.9219
Q6 25.1406 12.1719 29.8281
Q18.3594 34.5156 30.6094 34.5156
L43.2188 34.5156
L43.2188 35.4062
Q43.2188 41.6094 39.1406 45
Q35.0625 48.3906 27.6875 48.3906
Q23 48.3906 18.5469 47.2656
Q14.1094 46.1406 10.0156 43.8906
L10.0156 52.2031
Q14.9375 54.1094 19.5781 55.0469
Q24.2188 56 28.6094 56
Q40.4844 56 46.3438 49.8438
Q52.2031 43.7031 52.2031 31.2031" id="DejaVuSans-61"/>
      <path d="
M28.6094 0
L0.78125 72.9062
L11.0781 72.9062
L34.1875 11.5312
L57.3281 72.9062
L67.5781 72.9062
L39.7969 0
z
" id="DejaVuSans-56"/>
      <path d="
M19.6719 64.7969
L19.6719 8.10938
L31.5938 8.10938
Q46.6875 8.10938 53.6875 14.9375
Q60.6875 21.7812 60.6875 36.5312
Q60.6875 51.1719 53.6875 57.9844
Q46.6875 64.7969 31.5938 64.7969
z

M9.8125 72.9062
L30.0781 72.9062
Q51.2656 72.9062 61.1719 64.0938
Q71.0938 55.2812 71.0938 36.5312
Q71.0938 17.6719 61.125 8.82812
Q51.1719 0 30.0781 0
L9.8125 0
z
" id="DejaVuSans-44"/>
      <path d="
M8.5 21.5781
L8.5 54.6875
L17.4844 54.6875
L17.4844 21.9219
Q17.4844 14.1562 20.5 10.2656
Q23.5312 6.39062 29.5938 6.39062
Q36.8594 6.39062 41.0781 11.0312
Q45.3125 15.6719 45.3125 23.6875
L45.3125 54.6875
L54.2969 54.6875
L54.2969 0
L45.3125 0
L45.3125 8.40625
Q42.0469 3.42188 37.7188 1
Q33.4062 -1.42188 27.6875 -1.42188
Q18.2656 -1.42188 13.375 4.4375
Q8.5 10.2969 8.5 21.5781
M31.1094 56
z
" id="DejaVuSans-75"/>
      <path d="
M9.42188 75.9844
L18.4062 75.9844
L18.4062 0
L9.42188 0
z
" id="DejaVuSans-6c"/>
      <path d="
M32.1719 -5.07812
Q28.375 -14.8438 24.75 -17.8125
Q21.1406 -20.7969 15.0938 -20.7969
L7.90625 -20.7969
L7.90625 -13.2812
L13.1875 -13.2812
Q16.8906 -13.2812 18.9375 -11.5156
Q21 -9.76562 23.4844 -3.21875
L25.0938 0.875
L2.98438 54.6875
L12.5 54.6875
L29.5938 11.9219
L46.6875 54.6875
L56.2031 54.6875
z
" id="DejaVuSans-79"/>
      <path d="
M9.42188 54.6875
L18.4062 54.6875
L18.4062 0
L9.42188 0
z

M9.42188 75.9844
L18.4062 75.9844
L18.4062 64.5938
L9.42188 64.5938
z
" id="DejaVuSans-69"/>
      <path d="
M53.5156 70.5156
L53.5156 60.8906
Q47.9062 63.5781 42.9219 64.8906
Q37.9375 66.2188 33.2969 66.2188
Q25.25 66.2188 20.875 63.0938
Q16.5 59.9688 16.5 54.2031
Q16.5 49.3594 19.4062 46.8906
Q22.3125 44.4375 30.4219 42.9219
L36.375 41.7031
Q47.4062 39.5938 52.6562 34.2969
Q57.9062 29 57.9062 20.125
Q57.9062 9.51562 50.7969 4.04688
Q43.7031 -1.42188 29.9844 -1.42188
Q24.8125 -1.42188 18.9688 -0.25
Q13.1406 0.921875 6.89062 3.21875
L6.89062 13.375
Q12.8906 10.0156 18.6562 8.29688
Q24.4219 6.59375 29.9844 6.59375
Q38.4219 6.59375 43.0156 9.90625
Q47.6094 13.2344 47.6094 19.3906
Q47.6094 24.75 44.3125 27.7812
Q41.0156 30.8125 33.5 32.3281
L27.4844 33.5
Q16.4531 35.6875 11.5156 40.375
Q6.59375 45.0625 6.59375 53.4219
Q6.59375 63.0938 13.4062 68.6562
Q20.2188 74.2188 32.1719 74.2188
Q37.3125 74.2188 42.625 73.2812
Q47.9531 72.3594 53.5156 70.5156" id="DejaVuSans-53"/>
      <path d="
M18.3125 70.2188
L18.3125 54.6875
L36.8125 54.6875
L36.8125 47.7031
L18.3125 47.7031
L18.3125 18.0156
Q18.3125 11.3281 20.1406 9.42188
Q21.9688 7.51562 27.5938 7.51562
L36.8125 7.51562
L36.8125 0
L27.5938 0
Q17.1875 0 13.2344 3.875
Q9.28125 7.76562 9.28125 18.0156
L9.28125 47.7031
L2.6875 47.7031
L2.6875 54.6875
L9.28125 54.6875
L9.28125 70.2188
z
" id="DejaVuSans-74"/>
      <path d="
M56.2031 29.5938
L56.2031 25.2031
L14.8906 25.2031
Q15.4844 15.9219 20.4844 11.0625
Q25.4844 6.20312 34.4219 6.20312
Q39.5938 6.20312 44.4531 7.46875
Q49.3125 8.73438 54.1094 11.2812
L54.1094 2.78125
Q49.2656 0.734375 44.1875 -0.34375
Q39.1094 -1.42188 33.8906 -1.42188
Q20.7969 -1.42188 13.1562 6.1875
Q5.51562 13.8125 5.51562 26.8125
Q5.51562 40.2344 12.7656 48.1094
Q20.0156 56 32.3281 56
Q43.3594 56 49.7812 48.8906
Q56.2031 41.7969 56.2031 29.5938
M47.2188 32.2344
Q47.125 39.5938 43.0938 43.9844
Q39.0625 48.3906 32.4219 48.3906
Q24.9062 48.3906 20.3906 44.1406
Q15.875 39.8906 15.1875 32.1719
z
" id="DejaVuSans-65"/>
      <path d="
M48.6875 27.2969
Q48.6875 37.2031 44.6094 42.8438
Q40.5312 48.4844 33.4062 48.4844
Q26.2656 48.4844 22.1875 42.8438
Q18.1094 37.2031 18.1094 27.2969
Q18.1094 17.3906 22.1875 11.75
Q26.2656 6.10938 33.4062 6.10938
Q40.5312 6.10938 44.6094 11.75
Q48.6875 17.3906 48.6875 27.2969
M18.1094 46.3906
Q20.9531 51.2656 25.2656 53.625
Q29.5938 56 35.5938 56
Q45.5625 56 51.7812 48.0938
Q58.0156 40.1875 58.0156 27.2969
Q58.0156 14.4062 51.7812 6.48438
Q45.5625 -1.42188 35.5938 -1.42188
Q29.5938 -1.42188 25.2656 0.953125
Q20.9531 3.32812 18.1094 8.20312
L18.1094 0
L9.07812 0
L9.07812 75.9844
L18.1094 75.9844
z
" id="DejaVuSans-62"/>
      <path d="
M48.7812 52.5938
L48.7812 44.1875
Q44.9688 46.2969 41.1406 47.3438
Q37.3125 48.3906 33.4062 48.3906
Q24.6562 48.3906 19.8125 42.8438
Q14.9844 37.3125 14.9844 27.2969
Q14.9844 17.2812 19.8125 11.7344
Q24.6562 6.20312 33.4062 6.20312
Q37.3125 6.20312 41.1406 7.25
Q44.9688 8.29688 48.7812 10.4062
L48.7812 2.09375
Q45.0156 0.34375 40.9844 -0.53125
Q36.9688 -1.42188 32.4219 -1.42188
Q20.0625 -1.42188 12.7812 6.34375
Q5.51562 14.1094 5.51562 27.2969
Q5.51562 40.6719 12.8594 48.3281
Q20.2188 56 33.0156 56
Q37.1562 56 41.1094 55.1406
Q45.0625 54.2969 48.7812 52.5938" id="DejaVuSans-63"/>
      <path d="
M44.2812 53.0781
L44.2812 44.5781
Q40.4844 46.5312 36.375 47.5
Q32.2812 48.4844 27.875 48.4844
Q21.1875 48.4844 17.8438 46.4375
Q14.5 44.3906 14.5 40.2812
Q14.5 37.1562 16.8906 35.375
Q19.2812 33.5938 26.5156 31.9844
L29.5938 31.2969
Q39.1562 29.25 43.1875 25.5156
Q47.2188 21.7812 47.2188 15.0938
Q47.2188 7.46875 41.1875 3.01562
Q35.1562 -1.42188 24.6094 -1.42188
Q20.2188 -1.42188 15.4531 -0.5625
Q10.6875 0.296875 5.42188 2
L5.42188 11.2812
Q10.4062 8.6875 15.2344 7.39062
Q20.0625 6.10938 24.8125 6.10938
Q31.1562 6.10938 34.5625 8.28125
Q37.9844 10.4531 37.9844 14.4062
Q37.9844 18.0625 35.5156 20.0156
Q33.0625 21.9688 24.7031 23.7812
L21.5781 24.5156
Q13.2344 26.2656 9.51562 29.9062
Q5.8125 33.5469 5.8125 39.8906
Q5.8125 47.6094 11.2812 51.7969
Q16.75 56 26.8125 56
Q31.7812 56 36.1719 55.2656
Q40.5781 54.5469 44.2812 53.0781" id="DejaVuSans-73"/>
      <path d="
M41.1094 46.2969
Q39.5938 47.1719 37.8125 47.5781
Q36.0312 48 33.8906 48
Q26.2656 48 22.1875 43.0469
Q18.1094 38.0938 18.1094 28.8125
L18.1094 0
L9.07812 0
L9.07812 54.6875
L18.1094 54.6875
L18.1094 46.1875
Q20.9531 51.1719 25.4844 53.5781
Q30.0312 56 36.5312 56
Q37.4531 56 38.5781 55.875
Q39.7031 55.7656 41.0625 55.5156
z
" id="DejaVuSans-72"/>
     </defs>
     <g transform="translate(98.4 48.718125)scale(0.12 -0.12)">
      <use xlink:href="#DejaVuSans-56"/>
      <use x="60.658203125" xlink:href="#DejaVuSans-65"/>
      <use x="122.181640625" xlink:href="#DejaVuSans-72"/>
      <use x="163.294921875" xlink:href="#DejaVuSans-74"/>
      <use x="202.50390625" xlink:href="#DejaVuSans-69"/>
      <use x="230.287109375" xlink:href="#DejaVuSans-63"/>
      <use x="285.267578125" xlink:href="#DejaVuSans-61"/>
      <use x="346.546875" xlink:href="#DejaVuSans-6c"/>
      <use x="374.330078125" xlink:href="#DejaVuSans-20"/>
      <use x="406.1171875" xlink:href="#DejaVuSans-53"/>
      <use x="469.59375" xlink:href="#DejaVuSans-6b"/>
      <use x="523.87890625" xlink:href="#DejaVuSans-79"/>
      <use x="583.05859375" xlink:href="#DejaVuSans-20"/>
      <use x="614.845703125" xlink:href="#DejaVuSans-44"/>
      <use x="691.84765625" xlink:href="#DejaVuSans-69"/>
      <use x="719.630859375" xlink:href="#DejaVuSans-73"/>
      <use x="771.73046875" xlink:href="#DejaVuSans-74"/>
      <use x="810.939453125" xlink:href="#DejaVuSans-72"/>
      <use x="852.052734375" xlink:href="#DejaVuSans-69"/>
      <use x="879.8359375" xlink:href="#DejaVuSans-62"/>
      <use x="943.3125" xlink:href="#DejaVuSans-75"/>
      <use x="1006.69140625" xlink:href="#DejaVuSans-74"/>
      <use x="1045.90039062" xlink:href="#DejaVuSans-69"/>
      <use x="1073.68359375" xlink:href="#DejaVuSans-6f"/>
      <use x="1134.86523438" xlink:href="#DejaVuSans-6e"/>
     </g>
    </g>
    <g id="line2d_29">
     <path d="
M68.4 62.1319
L85.2 62.1319" style="fill:none;stroke:#ff0000;stroke-linecap:square;"/>
    </g>
    <g id="line2d_30"/>
    <g id="text_15">
     <!-- Sigmoid Fit -->
     <defs>
      <path d="
M45.4062 27.9844
Q45.4062 37.75 41.375 43.1094
Q37.3594 48.4844 30.0781 48.4844
Q22.8594 48.4844 18.8281 43.1094
Q14.7969 37.75 14.7969 27.9844
Q14.7969 18.2656 18.8281 12.8906
Q22.8594 7.51562 30.0781 7.51562
Q37.3594 7.51562 41.375 12.8906
Q45.4062 18.2656 45.4062 27.9844
M54.3906 6.78125
Q54.3906 -7.17188 48.1875 -13.9844
Q42 -20.7969 29.2031 -20.7969
Q24.4688 -20.7969 20.2656 -20.0938
Q16.0625 -19.3906 12.1094 -17.9219
L12.1094 -9.1875
Q16.0625 -11.3281 19.9219 -12.3438
Q23.7812 -13.375 27.7812 -13.375
Q36.625 -13.375 41.0156 -8.76562
Q45.4062 -4.15625 45.4062 5.17188
L45.4062 9.625
Q42.625 4.78125 38.2812 2.39062
Q33.9375 0 27.875 0
Q17.8281 0 11.6719 7.65625
Q5.51562 15.3281 5.51562 27.9844
Q5.51562 40.6719 11.6719 48.3281
Q17.8281 56 27.875 56
Q33.9375 56 38.2812 53.6094
Q42.625 51.2188 45.4062 46.3906
L45.4062 54.6875
L54.3906 54.6875
z
" id="DejaVuSans-67"/>
      <path d="
M52 44.1875
Q55.375 50.25 60.0625 53.125
Q64.75 56 71.0938 56
Q79.6406 56 84.2812 50.0156
Q88.9219 44.0469 88.9219 33.0156
L88.9219 0
L79.8906 0
L79.8906 32.7188
Q79.8906 40.5781 77.0938 44.375
Q74.3125 48.1875 68.6094 48.1875
Q61.625 48.1875 57.5625 43.5469
Q53.5156 38.9219 53.5156 30.9062
L53.5156 0
L44.4844 0
L44.4844 32.7188
Q44.4844 40.625 41.7031 44.4062
Q38.9219 48.1875 33.1094 48.1875
Q26.2188 48.1875 22.1562 43.5312
Q18.1094 38.875 18.1094 30.9062
L18.1094 0
L9.07812 0
L9.07812 54.6875
L18.1094 54.6875
L18.1094 46.1875
Q21.1875 51.2188 25.4844 53.6094
Q29.7812 56 35.6875 56
Q41.6562 56 45.8281 52.9688
Q50 49.9531 52 44.1875" id="DejaVuSans-6d"/>
      <path d="
M9.8125 72.9062
L51.7031 72.9062
L51.7031 64.5938
L19.6719 64.5938
L19.6719 43.1094
L48.5781 43.1094
L48.5781 34.8125
L19.6719 34.8125
L19.6719 0
L9.8125 0
z
" id="DejaVuSans-46"/>
      <path d="
M45.4062 46.3906
L45.4062 75.9844
L54.3906 75.9844
L54.3906 0
L45.4062 0
L45.4062 8.20312
Q42.5781 3.32812 38.25 0.953125
Q33.9375 -1.42188 27.875 -1.42188
Q17.9688 -1.42188 11.7344 6.48438
Q5.51562 14.4062 5.51562 27.2969
Q5.51562 40.1875 11.7344 48.0938
Q17.9688 56 27.875 56
Q33.9375 56 38.25 53.625
Q42.5781 51.2656 45.4062 46.3906
M14.7969 27.2969
Q14.7969 17.3906 18.875 11.75
Q22.9531 6.10938 30.0781 6.10938
Q37.2031 6.10938 41.2969 11.75
Q45.4062 17.3906 45.4062 27.2969
Q45.4062 37.2031 41.2969 42.8438
Q37.2031 48.4844 30.0781 48.4844
Q22.9531 48.4844 18.875 42.8438
Q14.7969 37.2031 14.7969 27.2969" id="DejaVuSans-64"/>
     </defs>
     <g transform="translate(98.4 66.331875)scale(0.12 -0.12)">
      <use xlink:href="#DejaVuSans-53"/>
      <use x="63.4765625" xlink:href="#DejaVuSans-69"/>
      <use x="91.259765625" xlink:href="#DejaVuSans-67"/>
      <use x="154.736328125" xlink:href="#DejaVuSans-6d"/>
      <use x="252.1484375" xlink:href="#DejaVuSans-6f"/>
      <use x="313.330078125" xlink:href="#DejaVuSans-69"/>
      <use x="341.11328125" xlink:href="#DejaVuSans-64"/>
      <use x="404.58984375" xlink:href="#DejaVuSans-20"/>
      <use x="436.376953125" xlink:href="#DejaVuSans-46"/>
      <use x="486.646484375" xlink:href="#DejaVuSans-69"/>
      <use x="514.4296875" xlink:href="#DejaVuSans-74"/>
     </g>
    </g>
   </g>
  </g>
 </g>
 <defs>
  <clipPath id="p124b8dd147">
   <rect height="223.2" width="334.8" x="54.0" y="28.8"/>
  </clipPath>
 </defs>
</svg>
