<?xml version="1.0" encoding="utf-8" standalone="no"?>
<!DOCTYPE svg PUBLIC "-//W3C//DTD SVG 1.1//EN"
  "http://www.w3.org/Graphics/SVG/1.1/DTD/svg11.dtd">
<!-- Created with matplotlib (http://matplotlib.org/) -->
<svg height="288pt" version="1.1" viewBox="0 0 432 288" width="432pt" xmlns="http://www.w3.org/2000/svg" xmlns:xlink="http://www.w3.org/1999/xlink">
 <defs>
  <style type="text/css">
*{stroke-linecap:butt;stroke-linejoin:round;}
  </style>
 </defs>
 <g id="figure_1">
  <g id="patch_1">
   <path d="
M0 288
L432 288
L432 0
L0 0
z
" style="fill:#ffffff;"/>
  </g>
  <g id="axes_1">
   <g id="patch_2">
    <path d="
M54 252
L388.8 252
L388.8 28.8
L54 28.8
z
" style="fill:#ffffff;"/>
   </g>
   <g id="line2d_1">
    <path clip-path="url(#p124b8dd147)" d="
M54 252
L61.2018 252
L61.3693 251.787
L61.5368 252
L64.049 252
L64.2165 251.841
L64.384 252
L68.0686 251.947
L68.2361 251.734
L68.4036 252
L71.4183 252
L71.5858 249.555
L71.9208 248.865
L72.0882 248.811
L72.5907 249.13
L72.9257 250.406
L73.0931 251.415
L73.4281 252
L78.2851 252
L78.6201 251.734
L78.7876 252
L79.4575 252
L79.625 251.734
L79.7925 251.681
L79.96 252
L82.8072 252
L82.9747 251.575
L83.1422 252
L86.4918 251.947
L86.8268 251.841
L87.3293 251.894
L88.6691 251.841
L89.0041 251.681
L89.3391 252
L89.5066 251.894
L89.674 251.947
L89.8415 251.841
L90.009 252
L90.1765 252
L90.344 251.309
L90.5115 251.787
L90.8464 250.618
L91.0139 251.947
L91.5164 251.203
L91.6838 251.522
L91.8513 251.575
L92.0188 251.362
L92.1863 251.415
L92.3538 251.628
L92.5213 251.415
L92.6887 251.522
L92.8562 251.947
L93.1912 251.575
L93.3587 251.203
L93.6936 251.787
L93.8611 251.362
L94.0286 251.947
L94.1961 251.894
L94.3636 251.362
L94.5311 251.787
L94.6985 251.841
L94.866 251.575
L95.201 252
L95.3685 251.575
L95.7035 252
L95.8709 251.841
L96.0384 251.415
L96.3734 251.947
L96.7084 251.947
L96.8758 251.841
L97.2108 252
L100.56 252
L100.728 251.787
L100.895 251.947
L101.063 251.787
L102.068 252
L102.235 252
L102.403 251.841
L103.073 251.947
L103.24 251.841
L103.575 252
L104.915 251.947
L105.083 251.787
L105.585 252
L106.087 251.894
L106.255 252
L106.59 251.947
L106.757 252
L107.092 251.787
L107.595 252
L107.762 251.787
L107.93 252
L108.6 251.947
L108.767 251.841
L109.102 252
L109.437 251.575
L109.772 251.841
L109.94 251.841
L110.107 251.628
L110.442 251.894
L110.944 252
L111.279 251.894
L111.447 252
L111.949 251.469
L112.284 251.947
L112.452 251.947
L112.619 251.15
L112.954 251.681
L113.122 251.681
L113.289 251.947
L113.959 251.841
L114.127 251.947
L114.462 251.628
L114.797 251.894
L115.299 251.841
L115.634 251.947
L115.802 251.575
L115.969 251.841
L116.136 251.894
L116.304 251.734
L116.974 251.787
L117.141 251.947
L117.476 251.522
L117.811 251.947
L118.146 251.841
L118.314 251.841
L118.481 251.575
L118.816 251.841
L119.151 251.681
L119.319 251.522
L119.486 251.15
L119.654 251.309
L119.989 252
L120.156 251.841
L120.491 251.787
L120.659 252
L121.161 251.522
L121.328 251.469
L121.663 250.884
L121.831 250.99
L121.998 250.671
L122.166 251.362
L122.501 251.575
L122.668 251.522
L123.003 251.841
L123.171 251.628
L123.338 250.937
L123.506 251.681
L123.841 251.787
L124.008 251.841
L124.176 251.681
L124.343 251.681
L124.511 251.841
L125.181 251.947
L125.348 252
L125.516 251.841
L125.851 252
L126.185 251.734
L126.353 251.841
L126.52 251.575
L126.688 251.947
L127.023 252
L127.19 251.947
L127.358 251.734
L127.525 251.841
L127.693 251.734
L128.195 251.947
L130.038 252
L130.205 251.787
L130.373 251.787
L130.54 251.309
L131.043 251.894
L131.21 251.947
L131.545 251.787
L131.712 252
L132.382 251.947
L132.55 251.787
L133.555 252
L133.89 251.841
L134.057 252
L134.225 251.841
L134.392 252
L135.397 252
L135.565 251.841
L135.732 252
L136.235 251.947
L136.569 252
L136.737 251.894
L137.072 252
L137.574 251.841
L137.742 252
L138.077 251.894
L138.244 251.734
L139.417 252
L139.584 251.894
L140.087 252
L140.589 251.947
L142.599 251.947
L142.766 251.734
L143.101 251.787
L143.436 251.628
L143.604 251.415
L143.771 251.734
L144.106 251.522
L144.274 251.894
L144.609 251.894
L159.347 252
L159.515 251.681
L159.85 252
L164.204 252
L164.372 251.841
L164.539 251.309
L164.707 251.522
L164.874 251.522
L165.377 248.758
L165.712 248.439
L165.879 248.918
L166.047 248.121
L166.214 248.121
L166.382 247.749
L166.717 247.749
L166.884 248.014
L167.052 247.111
L167.219 247.005
L167.386 247.536
L167.554 246.845
L167.721 246.792
L168.391 247.749
L168.726 248.333
L168.894 248.493
L169.229 249.077
L169.731 248.652
L169.899 248.918
L170.066 248.918
L170.234 248.28
L170.569 248.121
L170.736 247.802
L170.904 247.855
L171.071 247.749
L171.239 247.217
L171.406 247.111
L171.574 247.164
L171.741 246.633
L171.909 246.579
L172.244 246.048
L172.578 246.42
L173.081 245.782
L173.248 246.048
L173.583 245.676
L173.751 246.101
L173.918 245.57
L174.086 246.154
L174.421 245.57
L174.588 245.57
L174.756 245.729
L174.923 245.304
L175.091 245.729
L175.258 245.676
L175.426 245.835
L175.593 245.676
L175.761 246.207
L175.928 246.154
L176.096 245.942
L177.101 247.961
L177.268 247.749
L177.77 249.396
L177.938 249.768
L178.105 250.459
L178.273 250.618
L178.775 251.522
L178.943 251.522
L179.278 251.947
L180.283 251.841
L180.953 250.884
L181.12 250.565
L181.288 250.831
L181.455 250.565
L181.623 250.512
L181.79 250.618
L181.958 251.362
L182.125 251.362
L182.628 252
L191.839 251.894
L192.174 251.734
L192.342 251.469
L192.677 251.787
L192.844 251.841
L193.012 251.734
L193.346 251.894
L193.681 251.575
L193.849 251.15
L194.016 251.203
L194.184 251.628
L194.519 251.522
L194.686 251.415
L194.854 250.884
L195.021 250.937
L195.189 250.831
L195.356 250.937
L195.524 250.618
L195.859 251.681
L196.194 251.415
L196.361 251.203
L196.696 251.522
L197.031 251.575
L197.199 252
L197.869 251.787
L198.204 251.309
L198.371 251.256
L198.873 252
L199.041 252
L199.208 251.841
L199.376 252
L199.543 251.894
L200.213 252
L201.553 252
L202.056 251.628
L202.391 252
L203.395 251.894
L203.563 251.628
L203.73 250.831
L203.898 250.778
L204.233 249.449
L204.4 250.618
L204.568 250.884
L204.903 252
L205.908 252
L206.41 248.546
L206.745 247.43
L206.913 248.174
L207.248 244.507
L207.415 244.135
L207.583 244.985
L207.75 246.951
L207.918 246.207
L208.085 244.56
L208.922 230.424
L209.425 200.292
L209.76 191.151
L209.927 185.412
L210.095 187.803
L210.262 187.591
L210.597 173.03
L210.765 172.179
L211.1 168.725
L211.267 169.522
L211.435 169.575
L211.602 170.532
L211.937 178.025
L212.272 180.842
L212.607 189.345
L212.775 191.736
L212.942 192.108
L213.277 182.223
L213.445 180.629
L213.947 179.46
L214.449 200.664
L214.617 214.8
L214.952 222.559
L215.119 224.206
L215.287 223.197
L215.454 224.472
L215.622 222.665
L216.124 224.844
L216.292 223.037
L216.627 228.723
L216.794 229.308
L216.962 229.467
L217.297 232.071
L217.464 231.646
L217.632 230.211
L217.799 230.583
L217.967 231.434
L218.469 236.695
L218.637 235.845
L218.804 235.898
L218.971 235.207
L219.139 237.492
L219.474 236.217
L219.641 238.342
L219.809 236.642
L219.976 236.695
L220.144 236.535
L220.311 237.12
L220.646 241.159
L220.981 241.318
L221.149 240.574
L221.316 239.193
L221.484 239.193
L221.819 240.999
L221.986 241.159
L222.154 242.275
L222.321 240.999
L222.489 240.999
L222.656 239.724
L222.824 239.565
L222.991 239.246
L223.494 240.574
L223.661 240.149
L223.829 240.096
L224.163 241.478
L224.498 240.043
L224.666 239.405
L224.833 236.535
L225.001 237.545
L225.168 236.642
L225.336 238.714
L225.503 238.821
L225.671 239.193
L226.006 238.502
L226.173 237.12
L226.508 232.975
L226.843 238.023
L227.011 237.067
L227.178 237.279
L227.513 239.139
L227.681 238.395
L227.848 246.579
L228.016 247.058
L228.183 248.014
L228.351 246.261
L228.686 247.27
L229.188 243.922
L229.355 243.975
L230.025 248.439
L230.193 248.493
L230.36 248.333
L230.528 248.014
L230.695 248.174
L231.03 246.473
L231.365 247.111
L231.533 246.845
L231.7 245.729
L231.868 247.217
L232.035 247.111
L232.203 247.377
L232.37 247.43
L232.538 247.27
L232.705 248.865
L232.873 248.067
L233.208 244.773
L233.375 246.101
L233.543 246.42
L233.71 245.463
L233.878 246.526
L234.045 245.676
L234.213 245.942
L234.38 247.323
L235.05 245.889
L235.217 245.995
L235.72 244.347
L235.887 244.773
L236.055 244.826
L236.222 244.347
L236.557 246.314
L236.725 247.005
L236.892 246.686
L237.395 246.473
L237.562 246.314
L237.73 246.526
L237.897 244.985
L238.232 239.724
L238.735 246.845
L238.902 248.439
L239.07 246.473
L239.237 246.845
L239.405 245.517
L239.572 245.091
L239.739 245.517
L239.907 245.463
L240.074 245.091
L240.242 245.41
L240.409 242.806
L240.577 244.188
L240.744 243.55
L240.912 244.135
L241.079 243.338
L241.582 245.942
L241.749 245.676
L241.917 245.091
L242.419 247.802
L242.587 247.005
L242.754 246.951
L243.089 243.125
L243.257 242.7
L243.592 239.777
L243.927 242.275
L244.094 241.053
L244.262 237.333
L244.429 236.907
L244.596 239.033
L244.764 237.598
L244.931 234.622
L245.266 237.545
L245.434 237.439
L245.601 237.864
L245.769 239.937
L245.936 238.395
L246.104 238.077
L246.271 238.077
L246.606 230.849
L246.941 235.473
L247.276 234.357
L247.444 233.081
L247.611 232.762
L247.946 233.931
L248.114 231.646
L248.281 232.018
L248.449 232.922
L248.784 232.497
L248.951 231.593
L249.119 231.912
L249.454 231.381
L249.621 231.434
L249.788 230.796
L249.956 230.955
L250.123 231.327
L250.291 230.902
L250.458 229.095
L250.626 229.627
L250.793 228.511
L251.128 229.946
L251.296 229.999
L251.463 229.149
L251.631 229.149
L251.798 231.221
L251.966 230.052
L252.133 230.211
L252.301 230.902
L252.636 227.82
L252.803 226.013
L252.971 227.82
L253.138 227.926
L253.306 227.395
L253.473 228.883
L253.808 228.351
L253.976 228.245
L254.311 227.448
L254.478 226.704
L254.646 226.97
L254.813 226.651
L255.148 227.023
L255.315 226.385
L255.65 227.501
L255.818 227.235
L256.153 224.313
L256.32 224.844
L256.488 223.834
L256.823 218.467
L256.99 217.829
L257.158 217.882
L257.493 217.404
L257.828 215.225
L258.163 217.138
L258.33 217.457
L258.665 217.032
L259 213.578
L259.168 213.843
L259.335 215.863
L259.67 212.674
L259.838 212.568
L260.34 205.022
L260.675 198.857
L261.177 195.934
L261.345 195.35
L261.68 192.321
L262.182 191.311
L262.35 191.258
L262.685 189.185
L262.852 187.378
L263.02 187.431
L263.187 183.552
L263.69 180.363
L264.025 177.122
L264.192 177.281
L264.36 177.122
L264.527 178.291
L264.862 175.793
L265.197 172.02
L265.364 171.117
L266.034 161.817
L266.202 160.222
L266.369 160.169
L268.212 146.724
L268.379 147.043
L268.547 146.724
L268.714 146.671
L268.882 146.246
L269.217 144.067
L269.384 144.545
L269.552 144.545
L269.719 145.183
L269.887 144.97
L270.054 143.695
L270.222 143.642
L270.389 140.985
L270.891 139.443
L271.059 139.071
L271.394 137.69
L271.729 137.211
L271.896 137.265
L272.231 135.777
L272.399 134.979
L272.566 135.139
L272.734 135.564
L272.901 135.617
L273.236 133.598
L273.404 133.81
L273.739 134.501
L274.074 133.173
L274.241 133.119
L274.744 129.878
L274.911 129.027
L275.414 124.723
L275.916 121.641
L276.083 122.172
L276.251 122.119
L276.586 121.428
L276.921 119.621
L277.423 121.003
L277.758 117.177
L278.093 116.433
L278.428 117.442
L278.596 115.157
L278.931 114.201
L279.433 117.017
L279.768 119.94
L279.936 120.578
L280.103 120.046
L280.271 120.737
L280.438 118.93
L280.773 112.287
L280.94 111.225
L281.275 113.403
L281.61 112.022
L281.778 112.341
L282.113 113.775
L282.28 114.838
L282.448 114.094
L282.615 112.606
L282.95 113.138
L283.118 112.872
L283.285 113.244
L283.453 115.21
L283.62 114.891
L283.788 114.891
L283.955 114.094
L284.123 115.21
L284.458 113.244
L284.96 114.838
L285.128 113.935
L285.295 113.775
L285.797 112.606
L285.965 113.722
L286.3 112.766
L286.467 112.925
L286.635 112.606
L286.802 113.085
L286.97 112.766
L287.137 111.225
L287.305 111.969
L287.472 111.118
L287.64 112.181
L287.807 112.234
L287.975 112.553
L288.31 111.597
L288.477 113.722
L288.645 113.085
L288.812 112.925
L288.98 113.244
L289.147 115.742
L289.315 114.626
L289.482 112.128
L289.817 112.925
L289.985 114.466
L290.152 114.626
L290.487 117.814
L290.655 116.592
L290.822 116.858
L290.989 116.539
L291.157 116.645
L291.324 116.964
L291.492 116.645
L291.659 116.911
L291.827 118.665
L291.994 119.09
L292.329 118.665
L292.497 117.655
L292.664 117.549
L292.832 114.998
L292.999 114.573
L293.167 115.104
L293.837 111.703
L294.339 110.215
L294.507 110.481
L295.177 105.379
L295.512 106.92
L295.679 105.804
L295.847 103.041
L296.014 103.413
L296.349 103.413
L296.684 100.915
L296.851 100.49
L297.186 98.8954
L297.521 97.992
L297.689 98.5766
L298.024 98.3109
L298.359 95.6006
L298.526 96.2383
L298.861 94.5377
L299.196 93.156
L299.531 93.9
L300.536 91.6149
L300.704 91.7743
L300.871 91.1366
L301.039 89.8611
L301.206 90.3926
L301.541 89.5954
L301.708 88.1606
L301.876 87.8417
L302.043 85.9817
L302.211 81.7303
L302.378 82.3149
L302.546 81.4646
L302.713 82.0491
L303.216 80.0829
L303.383 80.5611
L303.551 81.7303
L303.718 82.0491
L303.886 82.1023
L304.388 84.4406
L304.556 83.2183
L304.891 84.1749
L305.058 83.6434
L305.226 84.0686
L305.393 85.6097
L305.896 81.0926
L306.063 79.2326
L306.231 79.02
L306.398 78.0103
L306.565 78.276
L306.733 77.5851
L306.9 77.5851
L307.068 77.3194
L308.073 69.0291
L308.24 68.232
L308.575 68.8166
L308.743 69.1354
L309.245 63.6617
L309.413 62.8114
L309.58 62.5457
L309.748 62.0143
L309.915 62.0143
L310.083 61.4829
L310.25 61.536
L310.418 62.0143
L310.585 61.4829
L310.92 59.5697
L311.088 58.6131
L311.423 58.8789
L311.757 57.0189
L312.427 53.5114
L312.762 53.6177
L312.93 51.9703
L313.097 48.9411
L313.265 48.0377
L313.432 46.284
L313.6 45.6994
L313.767 45.9651
L313.935 46.656
L314.102 46.0714
L314.27 46.1777
L314.437 45.8057
L314.605 44.796
L314.772 45.0617
L314.94 44.2646
L315.107 44.9554
L315.945 42.0857
L316.112 42.1389
L316.447 41.7669
L316.782 42.564
L316.949 42.192
L317.117 42.3514
L317.284 42.0326
L317.452 41.9794
L317.619 42.1389
L317.787 42.7234
L317.954 42.7234
L318.122 42.2983
L318.289 43.5206
L318.457 43.4674
L318.792 41.9263
L318.959 42.0857
L319.127 42.0857
L319.294 41.9263
L319.462 42.192
L319.797 42.0857
L320.132 42.0326
L320.299 42.4577
L320.467 42.2451
L320.634 41.7669
L320.802 41.7669
L320.969 42.0857
L321.304 41.448
L321.472 41.6074
L321.807 41.2886
L321.974 41.1823
L322.141 41.6606
L322.476 41.5011
L322.644 41.9263
L322.979 43.68
L323.146 43.4143
L323.314 43.4674
L323.481 43.1486
L323.984 44.2646
L324.151 44.3177
L324.654 42.3514
L324.821 42.2451
L325.156 41.8731
L325.324 42.1389
L325.491 41.6074
L325.659 42.3514
L325.826 42.0326
L326.161 42.0857
L326.329 42.7234
L326.998 43.2549
L327.166 43.7331
L327.333 42.564
L327.501 42.4046
L327.668 42.4046
L327.836 42.1389
L328.003 41.448
L328.171 41.5011
L328.338 41.3417
L328.506 41.5543
L328.841 41.076
L329.176 41.5543
L329.343 41.448
L330.013 41.6606
L330.181 41.2886
L330.348 41.3949
L330.516 40.9697
L330.851 41.1291
L331.018 41.448
L331.353 41.0229
L331.521 41.1291
L331.856 40.9166
L332.525 41.3949
L332.693 41.6074
L332.86 41.076
L333.028 41.3417
L333.195 41.1823
L333.363 41.6074
L333.53 41.0229
L333.698 41.1291
L333.865 40.9697
L334.368 40.9166
L334.535 40.7571
L334.87 40.7571
L335.038 40.6509
L335.205 40.704
L335.373 40.5446
L335.54 40.5977
L335.708 40.332
L335.875 39.8537
L336.21 39.9069
L336.378 40.0663
L336.545 39.96
L336.88 40.0663
L337.048 39.9069
L337.215 39.96
L337.382 40.2257
L337.55 40.0663
L337.717 40.1194
L337.885 39.96
L338.052 40.0131
L338.387 40.4383
L338.555 40.1726
L338.89 40.5977
L339.225 40.8103
L339.727 39.8006
L340.062 39.8006
L340.23 39.7474
L340.732 40.0131
L340.9 39.6411
L341.067 39.7474
L341.57 40.4914
L341.737 40.332
L342.072 39.6411
L342.407 39.6411
L342.574 39.6411
L342.742 39.4817
L342.909 39.8006
L343.244 39.5349
L388.8 39.4286
L388.8 39.4286" style="fill:none;stroke:#0000ff;stroke-linecap:square;"/>
   </g>
   <g id="line2d_2">
    <path clip-path="url(#p124b8dd147)" d="
M54 252
L156.165 251.888
L174.253 251.651
L185.475 251.292
L193.681 250.813
L200.213 250.213
L205.573 249.502
L210.095 248.689
L214.114 247.752
L217.799 246.667
L221.149 245.45
L224.163 244.128
L227.011 242.646
L229.69 241.011
L232.37 239.109
L234.882 237.049
L237.395 234.689
L239.739 232.184
L242.084 229.36
L244.429 226.187
L246.774 222.637
L249.119 218.687
L251.463 214.315
L253.976 209.144
L256.488 203.46
L259.168 196.835
L262.015 189.183
L265.197 179.945
L268.714 169.024
L273.404 153.661
L283.62 119.927
L287.305 108.662
L290.487 99.6303
L293.334 92.1844
L296.014 85.7636
L298.694 79.9263
L301.206 74.9803
L303.718 70.5293
L306.231 66.5501
L308.575 63.2365
L310.92 60.2822
L313.432 57.4837
L315.945 55.0301
L318.457 52.8869
L321.137 50.9055
L323.816 49.2014
L326.664 47.6559
L329.678 46.2761
L332.86 45.0629
L336.378 43.965
L340.23 43.0022
L344.584 42.1543
L349.441 41.4414
L355.136 40.8376
L362.003 40.3441
L370.544 39.9635
L382.101 39.6868
L388.8 39.5978
L388.8 39.5978" style="fill:none;stroke:#ff0000;stroke-linecap:square;"/>
   </g>
   <g id="matplotlib.axis_1">
    <g id="xtick_1">
     <g id="line2d_3">
      <defs>
       <path d="
M0 0
L0 -4" id="m93b0483c22" style="stroke:#000000;stroke-width:0.5;"/>
      </defs>
      <g>
       <use style="stroke:#000000;stroke-width:0.5;" x="54.0" xlink:href="#m93b0483c22" y="252.0"/>
      </g>
     </g>
     <g id="line2d_4">
      <defs>
       <path d="
M0 0
L0 4" id="m741efc42ff" style="stroke:#000000;stroke-width:0.5;"/>
      </defs>
      <g>
       <use style="stroke:#000000;stroke-width:0.5;" x="54.0" xlink:href="#m741efc42ff" y="28.8"/>
      </g>
     </g>
     <g id="text_1">
      <!-- 0.0 -->
      <defs>
       <path d="
M31.7812 66.4062
Q24.1719 66.4062 20.3281 58.9062
Q16.5 51.4219 16.5 36.375
Q16.5 21.3906 20.3281 13.8906
Q24.1719 6.39062 31.7812 6.39062
Q39.4531 6.39062 43.2812 13.8906
Q47.125 21.3906 47.125 36.375
Q47.125 51.4219 43.2812 58.9062
Q39.4531 66.4062 31.7812 66.4062
M31.7812 74.2188
Q44.0469 74.2188 50.5156 64.5156
Q56.9844 54.8281 56.9844 36.375
Q56.9844 17.9688 50.5156 8.26562
Q44.0469 -1.42188 31.7812 -1.42188
Q19.5312 -1.42188 13.0625 8.26562
Q6.59375 17.9688 6.59375 36.375
Q6.59375 54.8281 13.0625 64.5156
Q19.5312 74.2188 31.7812 74.2188" id="DejaVuSans-30"/>
       <path d="
M10.6875 12.4062
L21 12.4062
L21 0
L10.6875 0
z
" id="DejaVuSans-2e"/>
      </defs>
      <g transform="translate(46.71015625 263.5984375)scale(0.1 -0.1)">
       <use xlink:href="#DejaVuSans-30"/>
       <use x="63.623046875" xlink:href="#DejaVuSans-2e"/>
       <use x="95.41015625" xlink:href="#DejaVuSans-30"/>
      </g>
     </g>
    </g>
    <g id="xtick_2">
     <g id="line2d_5">
      <g>
       <use style="stroke:#000000;stroke-width:0.5;" x="120.96" xlink:href="#m93b0483c22" y="252.0"/>
      </g>
     </g>
     <g id="line2d_6">
      <g>
       <use style="stroke:#000000;stroke-width:0.5;" x="120.96" xlink:href="#m741efc42ff" y="28.8"/>
      </g>
     </g>
     <g id="text_2">
      <!-- 0.2 -->
      <defs>
       <path d="
M19.1875 8.29688
L53.6094 8.29688
L53.6094 0
L7.32812 0
L7.32812 8.29688
Q12.9375 14.1094 22.625 23.8906
Q32.3281 33.6875 34.8125 36.5312
Q39.5469 41.8438 41.4219 45.5312
Q43.3125 49.2188 43.3125 52.7812
Q43.3125 58.5938 39.2344 62.25
Q35.1562 65.9219 28.6094 65.9219
Q23.9688 65.9219 18.8125 64.3125
Q13.6719 62.7031 7.8125 59.4219
L7.8125 69.3906
Q13.7656 71.7812 18.9375 73
Q24.125 74.2188 28.4219 74.2188
Q39.75 74.2188 46.4844 68.5469
Q53.2188 62.8906 53.2188 53.4219
Q53.2188 48.9219 51.5312 44.8906
Q49.8594 40.875 45.4062 35.4062
Q44.1875 33.9844 37.6406 27.2188
Q31.1094 20.4531 19.1875 8.29688" id="DejaVuSans-32"/>
      </defs>
      <g transform="translate(113.83890625 263.5984375)scale(0.1 -0.1)">
       <use xlink:href="#DejaVuSans-30"/>
       <use x="63.623046875" xlink:href="#DejaVuSans-2e"/>
       <use x="95.41015625" xlink:href="#DejaVuSans-32"/>
      </g>
     </g>
    </g>
    <g id="xtick_3">
     <g id="line2d_7">
      <g>
       <use style="stroke:#000000;stroke-width:0.5;" x="187.92" xlink:href="#m93b0483c22" y="252.0"/>
      </g>
     </g>
     <g id="line2d_8">
      <g>
       <use style="stroke:#000000;stroke-width:0.5;" x="187.92" xlink:href="#m741efc42ff" y="28.8"/>
      </g>
     </g>
     <g id="text_3">
      <!-- 0.4 -->
      <defs>
       <path d="
M37.7969 64.3125
L12.8906 25.3906
L37.7969 25.3906
z

M35.2031 72.9062
L47.6094 72.9062
L47.6094 25.3906
L58.0156 25.3906
L58.0156 17.1875
L47.6094 17.1875
L47.6094 0
L37.7969 0
L37.7969 17.1875
L4.89062 17.1875
L4.89062 26.7031
z
" id="DejaVuSans-34"/>
      </defs>
      <g transform="translate(180.57859375 263.5984375)scale(0.1 -0.1)">
       <use xlink:href="#DejaVuSans-30"/>
       <use x="63.623046875" xlink:href="#DejaVuSans-2e"/>
       <use x="95.41015625" xlink:href="#DejaVuSans-34"/>
      </g>
     </g>
    </g>
    <g id="xtick_4">
     <g id="line2d_9">
      <g>
       <use style="stroke:#000000;stroke-width:0.5;" x="254.88" xlink:href="#m93b0483c22" y="252.0"/>
      </g>
     </g>
     <g id="line2d_10">
      <g>
       <use style="stroke:#000000;stroke-width:0.5;" x="254.88" xlink:href="#m741efc42ff" y="28.8"/>
      </g>
     </g>
     <g id="text_4">
      <!-- 0.6 -->
      <defs>
       <path d="
M33.0156 40.375
Q26.375 40.375 22.4844 35.8281
Q18.6094 31.2969 18.6094 23.3906
Q18.6094 15.5312 22.4844 10.9531
Q26.375 6.39062 33.0156 6.39062
Q39.6562 6.39062 43.5312 10.9531
Q47.4062 15.5312 47.4062 23.3906
Q47.4062 31.2969 43.5312 35.8281
Q39.6562 40.375 33.0156 40.375
M52.5938 71.2969
L52.5938 62.3125
Q48.875 64.0625 45.0938 64.9844
Q41.3125 65.9219 37.5938 65.9219
Q27.8281 65.9219 22.6719 59.3281
Q17.5312 52.7344 16.7969 39.4062
Q19.6719 43.6562 24.0156 45.9219
Q28.375 48.1875 33.5938 48.1875
Q44.5781 48.1875 50.9531 41.5156
Q57.3281 34.8594 57.3281 23.3906
Q57.3281 12.1562 50.6875 5.35938
Q44.0469 -1.42188 33.0156 -1.42188
Q20.3594 -1.42188 13.6719 8.26562
Q6.98438 17.9688 6.98438 36.375
Q6.98438 53.6562 15.1875 63.9375
Q23.3906 74.2188 37.2031 74.2188
Q40.9219 74.2188 44.7031 73.4844
Q48.4844 72.75 52.5938 71.2969" id="DejaVuSans-36"/>
      </defs>
      <g transform="translate(247.57296875 263.5984375)scale(0.1 -0.1)">
       <use xlink:href="#DejaVuSans-30"/>
       <use x="63.623046875" xlink:href="#DejaVuSans-2e"/>
       <use x="95.41015625" xlink:href="#DejaVuSans-36"/>
      </g>
     </g>
    </g>
    <g id="xtick_5">
     <g id="line2d_11">
      <g>
       <use style="stroke:#000000;stroke-width:0.5;" x="321.84" xlink:href="#m93b0483c22" y="252.0"/>
      </g>
     </g>
     <g id="line2d_12">
      <g>
       <use style="stroke:#000000;stroke-width:0.5;" x="321.84" xlink:href="#m741efc42ff" y="28.8"/>
      </g>
     </g>
     <g id="text_5">
      <!-- 0.8 -->
      <defs>
       <path d="
M31.7812 34.625
Q24.75 34.625 20.7188 30.8594
Q16.7031 27.0938 16.7031 20.5156
Q16.7031 13.9219 20.7188 10.1562
Q24.75 6.39062 31.7812 6.39062
Q38.8125 6.39062 42.8594 10.1719
Q46.9219 13.9688 46.9219 20.5156
Q46.9219 27.0938 42.8906 30.8594
Q38.875 34.625 31.7812 34.625
M21.9219 38.8125
Q15.5781 40.375 12.0312 44.7188
Q8.5 49.0781 8.5 55.3281
Q8.5 64.0625 14.7188 69.1406
Q20.9531 74.2188 31.7812 74.2188
Q42.6719 74.2188 48.875 69.1406
Q55.0781 64.0625 55.0781 55.3281
Q55.0781 49.0781 51.5312 44.7188
Q48 40.375 41.7031 38.8125
Q48.8281 37.1562 52.7969 32.3125
Q56.7812 27.4844 56.7812 20.5156
Q56.7812 9.90625 50.3125 4.23438
Q43.8438 -1.42188 31.7812 -1.42188
Q19.7344 -1.42188 13.25 4.23438
Q6.78125 9.90625 6.78125 20.5156
Q6.78125 27.4844 10.7812 32.3125
Q14.7969 37.1562 21.9219 38.8125
M18.3125 54.3906
Q18.3125 48.7344 21.8438 45.5625
Q25.3906 42.3906 31.7812 42.3906
Q38.1406 42.3906 41.7188 45.5625
Q45.3125 48.7344 45.3125 54.3906
Q45.3125 60.0625 41.7188 63.2344
Q38.1406 66.4062 31.7812 66.4062
Q25.3906 66.4062 21.8438 63.2344
Q18.3125 60.0625 18.3125 54.3906" id="DejaVuSans-38"/>
      </defs>
      <g transform="translate(314.5603125 263.5984375)scale(0.1 -0.1)">
       <use xlink:href="#DejaVuSans-30"/>
       <use x="63.623046875" xlink:href="#DejaVuSans-2e"/>
       <use x="95.41015625" xlink:href="#DejaVuSans-38"/>
      </g>
     </g>
    </g>
    <g id="xtick_6">
     <g id="line2d_13">
      <g>
       <use style="stroke:#000000;stroke-width:0.5;" x="388.8" xlink:href="#m93b0483c22" y="252.0"/>
      </g>
     </g>
     <g id="line2d_14">
      <g>
       <use style="stroke:#000000;stroke-width:0.5;" x="388.8" xlink:href="#m741efc42ff" y="28.8"/>
      </g>
     </g>
     <g id="text_6">
      <!-- 1.0 -->
      <defs>
       <path d="
M12.4062 8.29688
L28.5156 8.29688
L28.5156 63.9219
L10.9844 60.4062
L10.9844 69.3906
L28.4219 72.9062
L38.2812 72.9062
L38.2812 8.29688
L54.3906 8.29688
L54.3906 0
L12.4062 0
z
" id="DejaVuSans-31"/>
      </defs>
      <g transform="translate(381.7296875 263.5984375)scale(0.1 -0.1)">
       <use xlink:href="#DejaVuSans-31"/>
       <use x="63.623046875" xlink:href="#DejaVuSans-2e"/>
       <use x="95.41015625" xlink:href="#DejaVuSans-30"/>
      </g>
     </g>
    </g>
   </g>
   <g id="matplotlib.axis_2">
    <g id="ytick_1">
     <g id="line2d_15">
      <defs>
       <path d="
M0 0
L4 0" id="m728421d6d4" style="stroke:#000000;stroke-width:0.5;"/>
      </defs>
      <g>
       <use style="stroke:#000000;stroke-width:0.5;" x="54.0" xlink:href="#m728421d6d4" y="252.0"/>
      </g>
     </g>
     <g id="line2d_16">
      <defs>
       <path d="
M0 0
L-4 0" id="mcb0005524f" style="stroke:#000000;stroke-width:0.5;"/>
      </defs>
      <g>
       <use style="stroke:#000000;stroke-width:0.5;" x="388.8" xlink:href="#mcb0005524f" y="252.0"/>
      </g>
     </g>
     <g id="text_7">
      <!-- 0.0 -->
      <g transform="translate(35.4203125 254.759375)scale(0.1 -0.1)">
       <use xlink:href="#DejaVuSans-30"/>
       <use x="63.623046875" xlink:href="#DejaVuSans-2e"/>
       <use x="95.41015625" xlink:href="#DejaVuSans-30"/>
      </g>
     </g>
    </g>
    <g id="ytick_2">
     <g id="line2d_17">
      <g>
       <use style="stroke:#000000;stroke-width:0.5;" x="54.0" xlink:href="#m728421d6d4" y="209.485714286"/>
      </g>
     </g>
     <g id="line2d_18">
      <g>
       <use style="stroke:#000000;stroke-width:0.5;" x="388.8" xlink:href="#mcb0005524f" y="209.485714286"/>
      </g>
     </g>
     <g id="text_8">
      <!-- 0.2 -->
      <g transform="translate(35.7578125 212.245089286)scale(0.1 -0.1)">
       <use xlink:href="#DejaVuSans-30"/>
       <use x="63.623046875" xlink:href="#DejaVuSans-2e"/>
       <use x="95.41015625" xlink:href="#DejaVuSans-32"/>
      </g>
     </g>
    </g>
    <g id="ytick_3">
     <g id="line2d_19">
      <g>
       <use style="stroke:#000000;stroke-width:0.5;" x="54.0" xlink:href="#m728421d6d4" y="166.971428571"/>
      </g>
     </g>
     <g id="line2d_20">
      <g>
       <use style="stroke:#000000;stroke-width:0.5;" x="388.8" xlink:href="#mcb0005524f" y="166.971428571"/>
      </g>
     </g>
     <g id="text_9">
      <!-- 0.4 -->
      <g transform="translate(35.3171875 169.730803571)scale(0.1 -0.1)">
       <use xlink:href="#DejaVuSans-30"/>
       <use x="63.623046875" xlink:href="#DejaVuSans-2e"/>
       <use x="95.41015625" xlink:href="#DejaVuSans-34"/>
      </g>
     </g>
    </g>
    <g id="ytick_4">
     <g id="line2d_21">
      <g>
       <use style="stroke:#000000;stroke-width:0.5;" x="54.0" xlink:href="#m728421d6d4" y="124.457142857"/>
      </g>
     </g>
     <g id="line2d_22">
      <g>
       <use style="stroke:#000000;stroke-width:0.5;" x="388.8" xlink:href="#mcb0005524f" y="124.457142857"/>
      </g>
     </g>
     <g id="text_10">
      <!-- 0.6 -->
      <g transform="translate(35.3859375 127.216517857)scale(0.1 -0.1)">
       <use xlink:href="#DejaVuSans-30"/>
       <use x="63.623046875" xlink:href="#DejaVuSans-2e"/>
       <use x="95.41015625" xlink:href="#DejaVuSans-36"/>
      </g>
     </g>
    </g>
    <g id="ytick_5">
     <g id="line2d_23">
      <g>
       <use style="stroke:#000000;stroke-width:0.5;" x="54.0" xlink:href="#m728421d6d4" y="81.9428571429"/>
      </g>
     </g>
     <g id="line2d_24">
      <g>
       <use style="stroke:#000000;stroke-width:0.5;" x="388.8" xlink:href="#mcb0005524f" y="81.9428571429"/>
      </g>
     </g>
     <g id="text_11">
      <!-- 0.8 -->
      <g transform="translate(35.440625 84.7022321429)scale(0.1 -0.1)">
       <use xlink:href="#DejaVuSans-30"/>
       <use x="63.623046875" xlink:href="#DejaVuSans-2e"/>
       <use x="95.41015625" xlink:href="#DejaVuSans-38"/>
      </g>
     </g>
    </g>
    <g id="ytick_6">
     <g id="line2d_25">
      <g>
       <use style="stroke:#000000;stroke-width:0.5;" x="54.0" xlink:href="#m728421d6d4" y="39.4285714286"/>
      </g>
     </g>
     <g id="line2d_26">
      <g>
       <use style="stroke:#000000;stroke-width:0.5;" x="388.8" xlink:href="#mcb0005524f" y="39.4285714286"/>
      </g>
     </g>
     <g id="text_12">
      <!-- 1.0 -->
      <g transform="translate(35.859375 42.1879464286)scale(0.1 -0.1)">
       <use xlink:href="#DejaVuSans-31"/>
       <use x="63.623046875" xlink:href="#DejaVuSans-2e"/>
       <use x="95.41015625" xlink:href="#DejaVuSans-30"/>
      </g>
     </g>
    </g>
   </g>
   <g id="patch_3">
    <path d="
M54 28.8
L388.8 28.8" style="fill:none;stroke:#000000;"/>
   </g>
   <g id="patch_4">
    <path d="
M388.8 252
L388.8 28.8" style="fill:none;stroke:#000000;"/>
   </g>
   <g id="patch_5">
    <path d="
M54 252
L388.8 252" style="fill:none;stroke:#000000;"/>
   </g>
   <g id="patch_6">
    <path d="
M54 252
L54 28.8" style="fill:none;stroke:#000000;"/>
   </g>
   <g id="text_13">
    <!-- x0: 0.662416314227 -->
    <defs>
     <path d="
M11.7188 12.4062
L22.0156 12.4062
L22.0156 0
L11.7188 0
z

M11.7188 51.7031
L22.0156 51.7031
L22.0156 39.3125
L11.7188 39.3125
z
" id="DejaVuSans-3a"/>
     <path id="DejaVuSans-20"/>
     <path d="
M54.8906 54.6875
L35.1094 28.0781
L55.9062 0
L45.3125 0
L29.3906 21.4844
L13.4844 0
L2.875 0
L24.125 28.6094
L4.6875 54.6875
L15.2812 54.6875
L29.7812 35.2031
L44.2812 54.6875
z
" id="DejaVuSans-78"/>
     <path d="
M8.20312 72.9062
L55.0781 72.9062
L55.0781 68.7031
L28.6094 0
L18.3125 0
L43.2188 64.5938
L8.20312 64.5938
z
" id="DejaVuSans-37"/>
     <path d="
M40.5781 39.3125
Q47.6562 37.7969 51.625 33
Q55.6094 28.2188 55.6094 21.1875
Q55.6094 10.4062 48.1875 4.48438
Q40.7656 -1.42188 27.0938 -1.42188
Q22.5156 -1.42188 17.6562 -0.515625
Q12.7969 0.390625 7.625 2.20312
L7.625 11.7188
Q11.7188 9.32812 16.5938 8.10938
Q21.4844 6.89062 26.8125 6.89062
Q36.0781 6.89062 40.9375 10.5469
Q45.7969 14.2031 45.7969 21.1875
Q45.7969 27.6406 41.2812 31.2656
Q36.7656 34.9062 28.7188 34.9062
L20.2188 34.9062
L20.2188 43.0156
L29.1094 43.0156
Q36.375 43.0156 40.2344 45.9219
Q44.0938 48.8281 44.0938 54.2969
Q44.0938 59.9062 40.1094 62.9062
Q36.1406 65.9219 28.7188 65.9219
Q24.6562 65.9219 20.0156 65.0312
Q15.375 64.1562 9.8125 62.3125
L9.8125 71.0938
Q15.4375 72.6562 20.3438 73.4375
Q25.25 74.2188 29.5938 74.2188
Q40.8281 74.2188 47.3594 69.1094
Q53.9062 64.0156 53.9062 55.3281
Q53.9062 49.2656 50.4375 45.0938
Q46.9688 40.9219 40.5781 39.3125" id="DejaVuSans-33"/>
    </defs>
    <g transform="translate(87.48 113.259330357)scale(0.1 -0.1)">
     <use xlink:href="#DejaVuSans-78"/>
     <use x="59.1796875" xlink:href="#DejaVuSans-30"/>
     <use x="122.802734375" xlink:href="#DejaVuSans-3a"/>
     <use x="156.494140625" xlink:href="#DejaVuSans-20"/>
     <use x="188.28125" xlink:href="#DejaVuSans-30"/>
     <use x="251.904296875" xlink:href="#DejaVuSans-2e"/>
     <use x="283.69140625" xlink:href="#DejaVuSans-36"/>
     <use x="347.314453125" xlink:href="#DejaVuSans-36"/>
     <use x="410.9375" xlink:href="#DejaVuSans-32"/>
     <use x="474.560546875" xlink:href="#DejaVuSans-34"/>
     <use x="538.18359375" xlink:href="#DejaVuSans-31"/>
     <use x="601.806640625" xlink:href="#DejaVuSans-36"/>
     <use x="665.4296875" xlink:href="#DejaVuSans-33"/>
     <use x="729.052734375" xlink:href="#DejaVuSans-31"/>
     <use x="792.67578125" xlink:href="#DejaVuSans-34"/>
     <use x="856.298828125" xlink:href="#DejaVuSans-32"/>
     <use x="919.921875" xlink:href="#DejaVuSans-32"/>
     <use x="983.544921875" xlink:href="#DejaVuSans-37"/>
    </g>
    <!-- k: 21.1350894375 -->
    <defs>
     <path d="
M10.9844 1.51562
L10.9844 10.5
Q14.7031 8.73438 18.5 7.8125
Q22.3125 6.89062 25.9844 6.89062
Q35.75 6.89062 40.8906 13.4531
Q46.0469 20.0156 46.7812 33.4062
Q43.9531 29.2031 39.5938 26.9531
Q35.25 24.7031 29.9844 24.7031
Q19.0469 24.7031 12.6719 31.3125
Q6.29688 37.9375 6.29688 49.4219
Q6.29688 60.6406 12.9375 67.4219
Q19.5781 74.2188 30.6094 74.2188
Q43.2656 74.2188 49.9219 64.5156
Q56.5938 54.8281 56.5938 36.375
Q56.5938 19.1406 48.4062 8.85938
Q40.2344 -1.42188 26.4219 -1.42188
Q22.7031 -1.42188 18.8906 -0.6875
Q15.0938 0.046875 10.9844 1.51562
M30.6094 32.4219
Q37.25 32.4219 41.125 36.9531
Q45.0156 41.5 45.0156 49.4219
Q45.0156 57.2812 41.125 61.8438
Q37.25 66.4062 30.6094 66.4062
Q23.9688 66.4062 20.0938 61.8438
Q16.2188 57.2812 16.2188 49.4219
Q16.2188 41.5 20.0938 36.9531
Q23.9688 32.4219 30.6094 32.4219" id="DejaVuSans-39"/>
     <path d="
M10.7969 72.9062
L49.5156 72.9062
L49.5156 64.5938
L19.8281 64.5938
L19.8281 46.7344
Q21.9688 47.4688 24.1094 47.8281
Q26.2656 48.1875 28.4219 48.1875
Q40.625 48.1875 47.75 41.5
Q54.8906 34.8125 54.8906 23.3906
Q54.8906 11.625 47.5625 5.09375
Q40.2344 -1.42188 26.9062 -1.42188
Q22.3125 -1.42188 17.5469 -0.640625
Q12.7969 0.140625 7.71875 1.70312
L7.71875 11.625
Q12.1094 9.23438 16.7969 8.0625
Q21.4844 6.89062 26.7031 6.89062
Q35.1562 6.89062 40.0781 11.3281
Q45.0156 15.7656 45.0156 23.3906
Q45.0156 31 40.0781 35.4375
Q35.1562 39.8906 26.7031 39.8906
Q22.75 39.8906 18.8125 39.0156
Q14.8906 38.1406 10.7969 36.2812
z
" id="DejaVuSans-35"/>
     <path d="
M9.07812 75.9844
L18.1094 75.9844
L18.1094 31.1094
L44.9219 54.6875
L56.3906 54.6875
L27.3906 29.1094
L57.625 0
L45.9062 0
L18.1094 26.7031
L18.1094 0
L9.07812 0
z
" id="DejaVuSans-6b"/>
    </defs>
    <g transform="translate(87.48 124.457142857)scale(0.1 -0.1)">
     <use xlink:href="#DejaVuSans-6b"/>
     <use x="57.91015625" xlink:href="#DejaVuSans-3a"/>
     <use x="91.6015625" xlink:href="#DejaVuSans-20"/>
     <use x="123.388671875" xlink:href="#DejaVuSans-32"/>
     <use x="187.01171875" xlink:href="#DejaVuSans-31"/>
     <use x="250.634765625" xlink:href="#DejaVuSans-2e"/>
     <use x="282.421875" xlink:href="#DejaVuSans-31"/>
     <use x="346.044921875" xlink:href="#DejaVuSans-33"/>
     <use x="409.66796875" xlink:href="#DejaVuSans-35"/>
     <use x="473.291015625" xlink:href="#DejaVuSans-30"/>
     <use x="536.9140625" xlink:href="#DejaVuSans-38"/>
     <use x="600.537109375" xlink:href="#DejaVuSans-39"/>
     <use x="664.16015625" xlink:href="#DejaVuSans-34"/>
     <use x="727.783203125" xlink:href="#DejaVuSans-33"/>
     <use x="791.40625" xlink:href="#DejaVuSans-37"/>
     <use x="855.029296875" xlink:href="#DejaVuSans-35"/>
    </g>
   </g>
   <g id="legend_1">
    <g id="patch_7">
     <path d="
M60 73.6275
L245.968 73.6275
L245.968 34.8
L60 34.8
L60 73.6275
z
" style="fill:#ffffff;stroke:#000000;"/>
    </g>
    <g id="line2d_27">
     <path d="
M68.4 44.5181
L85.2 44.5181" style="fill:none;stroke:#0000ff;stroke-linecap:square;"/>
    </g>
    <g id="line2d_28"/>
    <g id="text_14">
     <!-- Vertical Sky Distribution -->
     <defs>
      <path d="
M30.6094 48.3906
Q23.3906 48.3906 19.1875 42.75
Q14.9844 37.1094 14.9844 27.2969
Q14.9844 17.4844 19.1562 11.8438
Q23.3438 6.20312 30.6094 6.20312
Q37.7969 6.20312 41.9844 11.8594
Q46.1875 17.5312 46.1875 27.2969
Q46.1875 37.0156 41.9844 42.7031
Q37.7969 48.3906 30.6094 48.3906
M30.6094 56
Q42.3281 56 49.0156 48.375
Q55.7188 40.7656 55.7188 27.2969
Q55.7188 13.875 49.0156 6.21875
Q42.3281 -1.42188 30.6094 -1.42188
Q18.8438 -1.42188 12.1719 6.21875
Q5.51562 13.875 5.51562 27.2969
Q5.51562 40.7656 12.1719 48.375
Q18.8438 56 30.6094 56" id="DejaVuSans-6f"/>
      <path d="
M54.8906 33.0156
L54.8906 0
L45.9062 0
L45.9062 32.7188
Q45.9062 40.4844 42.875 44.3281
Q39.8438 48.1875 33.7969 48.1875
Q26.5156 48.1875 22.3125 43.5469
Q18.1094 38.9219 18.1094 30.9062
L18.1094 0
L9.07812 0
L9.07812 54.6875
L18.1094 54.6875
L18.1094 46.1875
Q21.3438 51.125 25.7031 53.5625
Q30.0781 56 35.7969 56
Q45.2188 56 50.0469 50.1719
Q54.8906 44.3438 54.8906 33.0156" id="DejaVuSans-6e"/>
      <path d="
M34.2812 27.4844
Q23.3906 27.4844 19.1875 25
Q14.9844 22.5156 14.9844 16.5
Q14.9844 11.7188 18.1406 8.90625
Q21.2969 6.10938 26.7031 6.10938
Q34.1875 6.10938 38.7031 11.4062
Q43.2188 16.7031 43.2188 25.4844
L43.2188 27.4844
z

M52.2031 31.2031
L52.2031 0
L43.2188 0
L43.2188 8.29688
Q40.1406 3.32812 35.5469 0.953125
Q30.9531 -1.42188 24.3125 -1.42188
Q15.9219 -1.42188 10.9531 3.29688
Q6 8.01562 6 15.9219
Q6 25.1406 12.1719 29.8281
Q18.3594 34.5156 30.6094 34.5156
L43.2188 34.5156
L43.2188 35.4062
Q43.2188 41.6094 39.1406 45
Q35.0625 48.3906 27.6875 48.3906
Q23 48.3906 18.5469 47.2656
Q14.1094 46.1406 10.0156 43.8906
L10.0156 52.2031
Q14.9375 54.1094 19.5781 55.0469
Q24.2188 56 28.6094 56
Q40.4844 56 46.3438 49.8438
Q52.2031 43.7031 52.2031 31.2031" id="DejaVuSans-61"/>
      <path d="
M28.6094 0
L0.78125 72.9062
L11.0781 72.9062
L34.1875 11.5312
L57.3281 72.9062
L67.5781 72.9062
L39.7969 0
z
" id="DejaVuSans-56"/>
      <path d="
M19.6719 64.7969
L19.6719 8.10938
L31.5938 8.10938
Q46.6875 8.10938 53.6875 14.9375
Q60.6875 21.7812 60.6875 36.5312
Q60.6875 51.1719 53.6875 57.9844
Q46.6875 64.7969 31.5938 64.7969
z

M9.8125 72.9062
L30.0781 72.9062
Q51.2656 72.9062 61.1719 64.0938
Q71.0938 55.2812 71.0938 36.5312
Q71.0938 17.6719 61.125 8.82812
Q51.1719 0 30.0781 0
L9.8125 0
z
" id="DejaVuSans-44"/>
      <path d="
M8.5 21.5781
L8.5 54.6875
L17.4844 54.6875
L17.4844 21.9219
Q17.4844 14.1562 20.5 10.2656
Q23.5312 6.39062 29.5938 6.39062
Q36.8594 6.39062 41.0781 11.0312
Q45.3125 15.6719 45.3125 23.6875
L45.3125 54.6875
L54.2969 54.6875
L54.2969 0
L45.3125 0
L45.3125 8.40625
Q42.0469 3.42188 37.7188 1
Q33.4062 -1.42188 27.6875 -1.42188
Q18.2656 -1.42188 13.375 4.4375
Q8.5 10.2969 8.5 21.5781
M31.1094 56
z
" id="DejaVuSans-75"/>
      <path d="
M9.42188 75.9844
L18.4062 75.9844
L18.4062 0
L9.42188 0
z
" id="DejaVuSans-6c"/>
      <path d="
M32.1719 -5.07812
Q28.375 -14.8438 24.75 -17.8125
Q21.1406 -20.7969 15.0938 -20.7969
L7.90625 -20.7969
L7.90625 -13.2812
L13.1875 -13.2812
Q16.8906 -13.2812 18.9375 -11.5156
Q21 -9.76562 23.4844 -3.21875
L25.0938 0.875
L2.98438 54.6875
L12.5 54.6875
L29.5938 11.9219
L46.6875 54.6875
L56.2031 54.6875
z
" id="DejaVuSans-79"/>
      <path d="
M9.42188 54.6875
L18.4062 54.6875
L18.4062 0
L9.42188 0
z

M9.42188 75.9844
L18.4062 75.9844
L18.4062 64.5938
L9.42188 64.5938
z
" id="DejaVuSans-69"/>
      <path d="
M53.5156 70.5156
L53.5156 60.8906
Q47.9062 63.5781 42.9219 64.8906
Q37.9375 66.2188 33.2969 66.2188
Q25.25 66.2188 20.875 63.0938
Q16.5 59.9688 16.5 54.2031
Q16.5 49.3594 19.4062 46.8906
Q22.3125 44.4375 30.4219 42.9219
L36.375 41.7031
Q47.4062 39.5938 52.6562 34.2969
Q57.9062 29 57.9062 20.125
Q57.9062 9.51562 50.7969 4.04688
Q43.7031 -1.42188 29.9844 -1.42188
Q24.8125 -1.42188 18.9688 -0.25
Q13.1406 0.921875 6.89062 3.21875
L6.89062 13.375
Q12.8906 10.0156 18.6562 8.29688
Q24.4219 6.59375 29.9844 6.59375
Q38.4219 6.59375 43.0156 9.90625
Q47.6094 13.2344 47.6094 19.3906
Q47.6094 24.75 44.3125 27.7812
Q41.0156 30.8125 33.5 32.3281
L27.4844 33.5
Q16.4531 35.6875 11.5156 40.375
Q6.59375 45.0625 6.59375 53.4219
Q6.59375 63.0938 13.4062 68.6562
Q20.2188 74.2188 32.1719 74.2188
Q37.3125 74.2188 42.625 73.2812
Q47.9531 72.3594 53.5156 70.5156" id="DejaVuSans-53"/>
      <path d="
M18.3125 70.2188
L18.3125 54.6875
L36.8125 54.6875
L36.8125 47.7031
L18.3125 47.7031
L18.3125 18.0156
Q18.3125 11.3281 20.1406 9.42188
Q21.9688 7.51562 27.5938 7.51562
L36.8125 7.51562
L36.8125 0
L27.5938 0
Q17.1875 0 13.2344 3.875
Q9.28125 7.76562 9.28125 18.0156
L9.28125 47.7031
L2.6875 47.7031
L2.6875 54.6875
L9.28125 54.6875
L9.28125 70.2188
z
" id="DejaVuSans-74"/>
      <path d="
M56.2031 29.5938
L56.2031 25.2031
L14.8906 25.2031
Q15.4844 15.9219 20.4844 11.0625
Q25.4844 6.20312 34.4219 6.20312
Q39.5938 6.20312 44.4531 7.46875
Q49.3125 8.73438 54.1094 11.2812
L54.1094 2.78125
Q49.2656 0.734375 44.1875 -0.34375
Q39.1094 -1.42188 33.8906 -1.42188
Q20.7969 -1.42188 13.1562 6.1875
Q5.51562 13.8125 5.51562 26.8125
Q5.51562 40.2344 12.7656 48.1094
Q20.0156 56 32.3281 56
Q43.3594 56 49.7812 48.8906
Q56.2031 41.7969 56.2031 29.5938
M47.2188 32.2344
Q47.125 39.5938 43.0938 43.9844
Q39.0625 48.3906 32.4219 48.3906
Q24.9062 48.3906 20.3906 44.1406
Q15.875 39.8906 15.1875 32.1719
z
" id="DejaVuSans-65"/>
      <path d="
M48.6875 27.2969
Q48.6875 37.2031 44.6094 42.8438
Q40.5312 48.4844 33.4062 48.4844
Q26.2656 48.4844 22.1875 42.8438
Q18.1094 37.2031 18.1094 27.2969
Q18.1094 17.3906 22.1875 11.75
Q26.2656 6.10938 33.4062 6.10938
Q40.5312 6.10938 44.6094 11.75
Q48.6875 17.3906 48.6875 27.2969
M18.1094 46.3906
Q20.9531 51.2656 25.2656 53.625
Q29.5938 56 35.5938 56
Q45.5625 56 51.7812 48.0938
Q58.0156 40.1875 58.0156 27.2969
Q58.0156 14.4062 51.7812 6.48438
Q45.5625 -1.42188 35.5938 -1.42188
Q29.5938 -1.42188 25.2656 0.953125
Q20.9531 3.32812 18.1094 8.20312
L18.1094 0
L9.07812 0
L9.07812 75.9844
L18.1094 75.9844
z
" id="DejaVuSans-62"/>
      <path d="
M48.7812 52.5938
L48.7812 44.1875
Q44.9688 46.2969 41.1406 47.3438
Q37.3125 48.3906 33.4062 48.3906
Q24.6562 48.3906 19.8125 42.8438
Q14.9844 37.3125 14.9844 27.2969
Q14.9844 17.2812 19.8125 11.7344
Q24.6562 6.20312 33.4062 6.20312
Q37.3125 6.20312 41.1406 7.25
Q44.9688 8.29688 48.7812 10.4062
L48.7812 2.09375
Q45.0156 0.34375 40.9844 -0.53125
Q36.9688 -1.42188 32.4219 -1.42188
Q20.0625 -1.42188 12.7812 6.34375
Q5.51562 14.1094 5.51562 27.2969
Q5.51562 40.6719 12.8594 48.3281
Q20.2188 56 33.0156 56
Q37.1562 56 41.1094 55.1406
Q45.0625 54.2969 48.7812 52.5938" id="DejaVuSans-63"/>
      <path d="
M44.2812 53.0781
L44.2812 44.5781
Q40.4844 46.5312 36.375 47.5
Q32.2812 48.4844 27.875 48.4844
Q21.1875 48.4844 17.8438 46.4375
Q14.5 44.3906 14.5 40.2812
Q14.5 37.1562 16.8906 35.375
Q19.2812 33.5938 26.5156 31.9844
L29.5938 31.2969
Q39.1562 29.25 43.1875 25.5156
Q47.2188 21.7812 47.2188 15.0938
Q47.2188 7.46875 41.1875 3.01562
Q35.1562 -1.42188 24.6094 -1.42188
Q20.2188 -1.42188 15.4531 -0.5625
Q10.6875 0.296875 5.42188 2
L5.42188 11.2812
Q10.4062 8.6875 15.2344 7.39062
Q20.0625 6.10938 24.8125 6.10938
Q31.1562 6.10938 34.5625 8.28125
Q37.9844 10.4531 37.9844 14.4062
Q37.9844 18.0625 35.5156 20.0156
Q33.0625 21.9688 24.7031 23.7812
L21.5781 24.5156
Q13.2344 26.2656 9.51562 29.9062
Q5.8125 33.5469 5.8125 39.8906
Q5.8125 47.6094 11.2812 51.7969
Q16.75 56 26.8125 56
Q31.7812 56 36.1719 55.2656
Q40.5781 54.5469 44.2812 53.0781" id="DejaVuSans-73"/>
      <path d="
M41.1094 46.2969
Q39.5938 47.1719 37.8125 47.5781
Q36.0312 48 33.8906 48
Q26.2656 48 22.1875 43.0469
Q18.1094 38.0938 18.1094 28.8125
L18.1094 0
L9.07812 0
L9.07812 54.6875
L18.1094 54.6875
L18.1094 46.1875
Q20.9531 51.1719 25.4844 53.5781
Q30.0312 56 36.5312 56
Q37.4531 56 38.5781 55.875
Q39.7031 55.7656 41.0625 55.5156
z
" id="DejaVuSans-72"/>
     </defs>
     <g transform="translate(98.4 48.718125)scale(0.12 -0.12)">
      <use xlink:href="#DejaVuSans-56"/>
      <use x="60.658203125" xlink:href="#DejaVuSans-65"/>
      <use x="122.181640625" xlink:href="#DejaVuSans-72"/>
      <use x="163.294921875" xlink:href="#DejaVuSans-74"/>
      <use x="202.50390625" xlink:href="#DejaVuSans-69"/>
      <use x="230.287109375" xlink:href="#DejaVuSans-63"/>
      <use x="285.267578125" xlink:href="#DejaVuSans-61"/>
      <use x="346.546875" xlink:href="#DejaVuSans-6c"/>
      <use x="374.330078125" xlink:href="#DejaVuSans-20"/>
      <use x="406.1171875" xlink:href="#DejaVuSans-53"/>
      <use x="469.59375" xlink:href="#DejaVuSans-6b"/>
      <use x="523.87890625" xlink:href="#DejaVuSans-79"/>
      <use x="583.05859375" xlink:href="#DejaVuSans-20"/>
      <use x="614.845703125" xlink:href="#DejaVuSans-44"/>
      <use x="691.84765625" xlink:href="#DejaVuSans-69"/>
      <use x="719.630859375" xlink:href="#DejaVuSans-73"/>
      <use x="771.73046875" xlink:href="#DejaVuSans-74"/>
      <use x="810.939453125" xlink:href="#DejaVuSans-72"/>
      <use x="852.052734375" xlink:href="#DejaVuSans-69"/>
      <use x="879.8359375" xlink:href="#DejaVuSans-62"/>
      <use x="943.3125" xlink:href="#DejaVuSans-75"/>
      <use x="1006.69140625" xlink:href="#DejaVuSans-74"/>
      <use x="1045.90039062" xlink:href="#DejaVuSans-69"/>
      <use x="1073.68359375" xlink:href="#DejaVuSans-6f"/>
      <use x="1134.86523438" xlink:href="#DejaVuSans-6e"/>
     </g>
    </g>
    <g id="line2d_29">
     <path d="
M68.4 62.1319
L85.2 62.1319" style="fill:none;stroke:#ff0000;stroke-linecap:square;"/>
    </g>
    <g id="line2d_30"/>
    <g id="text_15">
     <!-- Sigmoid Fit -->
     <defs>
      <path d="
M45.4062 27.9844
Q45.4062 37.75 41.375 43.1094
Q37.3594 48.4844 30.0781 48.4844
Q22.8594 48.4844 18.8281 43.1094
Q14.7969 37.75 14.7969 27.9844
Q14.7969 18.2656 18.8281 12.8906
Q22.8594 7.51562 30.0781 7.51562
Q37.3594 7.51562 41.375 12.8906
Q45.4062 18.2656 45.4062 27.9844
M54.3906 6.78125
Q54.3906 -7.17188 48.1875 -13.9844
Q42 -20.7969 29.2031 -20.7969
Q24.4688 -20.7969 20.2656 -20.0938
Q16.0625 -19.3906 12.1094 -17.9219
L12.1094 -9.1875
Q16.0625 -11.3281 19.9219 -12.3438
Q23.7812 -13.375 27.7812 -13.375
Q36.625 -13.375 41.0156 -8.76562
Q45.4062 -4.15625 45.4062 5.17188
L45.4062 9.625
Q42.625 4.78125 38.2812 2.39062
Q33.9375 0 27.875 0
Q17.8281 0 11.6719 7.65625
Q5.51562 15.3281 5.51562 27.9844
Q5.51562 40.6719 11.6719 48.3281
Q17.8281 56 27.875 56
Q33.9375 56 38.2812 53.6094
Q42.625 51.2188 45.4062 46.3906
L45.4062 54.6875
L54.3906 54.6875
z
" id="DejaVuSans-67"/>
      <path d="
M52 44.1875
Q55.375 50.25 60.0625 53.125
Q64.75 56 71.0938 56
Q79.6406 56 84.2812 50.0156
Q88.9219 44.0469 88.9219 33.0156
L88.9219 0
L79.8906 0
L79.8906 32.7188
Q79.8906 40.5781 77.0938 44.375
Q74.3125 48.1875 68.6094 48.1875
Q61.625 48.1875 57.5625 43.5469
Q53.5156 38.9219 53.5156 30.9062
L53.5156 0
L44.4844 0
L44.4844 32.7188
Q44.4844 40.625 41.7031 44.4062
Q38.9219 48.1875 33.1094 48.1875
Q26.2188 48.1875 22.1562 43.5312
Q18.1094 38.875 18.1094 30.9062
L18.1094 0
L9.07812 0
L9.07812 54.6875
L18.1094 54.6875
L18.1094 46.1875
Q21.1875 51.2188 25.4844 53.6094
Q29.7812 56 35.6875 56
Q41.6562 56 45.8281 52.9688
Q50 49.9531 52 44.1875" id="DejaVuSans-6d"/>
      <path d="
M9.8125 72.9062
L51.7031 72.9062
L51.7031 64.5938
L19.6719 64.5938
L19.6719 43.1094
L48.5781 43.1094
L48.5781 34.8125
L19.6719 34.8125
L19.6719 0
L9.8125 0
z
" id="DejaVuSans-46"/>
      <path d="
M45.4062 46.3906
L45.4062 75.9844
L54.3906 75.9844
L54.3906 0
L45.4062 0
L45.4062 8.20312
Q42.5781 3.32812 38.25 0.953125
Q33.9375 -1.42188 27.875 -1.42188
Q17.9688 -1.42188 11.7344 6.48438
Q5.51562 14.4062 5.51562 27.2969
Q5.51562 40.1875 11.7344 48.0938
Q17.9688 56 27.875 56
Q33.9375 56 38.25 53.625
Q42.5781 51.2656 45.4062 46.3906
M14.7969 27.2969
Q14.7969 17.3906 18.875 11.75
Q22.9531 6.10938 30.0781 6.10938
Q37.2031 6.10938 41.2969 11.75
Q45.4062 17.3906 45.4062 27.2969
Q45.4062 37.2031 41.2969 42.8438
Q37.2031 48.4844 30.0781 48.4844
Q22.9531 48.4844 18.875 42.8438
Q14.7969 37.2031 14.7969 27.2969" id="DejaVuSans-64"/>
     </defs>
     <g transform="translate(98.4 66.331875)scale(0.12 -0.12)">
      <use xlink:href="#DejaVuSans-53"/>
      <use x="63.4765625" xlink:href="#DejaVuSans-69"/>
      <use x="91.259765625" xlink:href="#DejaVuSans-67"/>
      <use x="154.736328125" xlink:href="#DejaVuSans-6d"/>
      <use x="252.1484375" xlink:href="#DejaVuSans-6f"/>
      <use x="313.330078125" xlink:href="#DejaVuSans-69"/>
      <use x="341.11328125" xlink:href="#DejaVuSans-64"/>
      <use x="404.58984375" xlink:href="#DejaVuSans-20"/>
      <use x="436.376953125" xlink:href="#DejaVuSans-46"/>
      <use x="486.646484375" xlink:href="#DejaVuSans-69"/>
      <use x="514.4296875" xlink:href="#DejaVuSans-74"/>
     </g>
    </g>
   </g>
  </g>
 </g>
 <defs>
  <clipPath id="p124b8dd147">
   <rect height="223.2" width="334.8" x="54.0" y="28.8"/>
  </clipPath>
 </defs>
</svg>
